<svg width="100" height="100" viewBox="0 0 100 100" xmlns="http://www.w3.org/2000/svg">
  <defs>
    <!-- Organic ink stamp filter -->
    <filter id="stamp" x="-20%" y="-20%" width="140%" height="140%">
      <feTurbulence type="fractalNoise" baseFrequency="0.7" numOctaves="4" result="noise" />
      <feDisplacementMap in="SourceGraphic" in2="noise" scale="2.5" xChannelSelector="R" yChannelSelector="G" result="displaced" />
      <feGaussianBlur in="displaced" stdDeviation="0.4" result="blurred" />
      <feColorMatrix type="matrix" values="
        1 0 0 0 0 
        0 1 0 0 0 
        0 0 1 0 0 
        0 0 0 1.5 -0.2" in="blurred" result="sharpened" />
      <feComposite in="SourceGraphic" in2="sharpened" operator="over" />
    </filter>
  </defs>
  
  <g filter="url(#stamp)">
    <path d="M 97.8 50.0 C 96.9 59.6, 98.2 55.4, 96.0 64.9 C 91.7 73.5, 93.8 69.9, 88.9 78.4 C 82.6 85.2, 85.6 82.6, 78.3 88.5 C 70.0 93.5, 73.6 91.4, 65.0 95.8 C 55.5 98.2, 59.5 96.6, 50.0 98.2 C 40.4 96.7, 44.5 97.8, 35.1 95.3 C 26.4 92.2, 30.3 93.5, 21.7 88.5 C 14.6 82.2, 17.2 85.2, 11.0 78.1 C 6.7 69.9, 8.0 73.9, 4.6 64.8 C 2.0 55.5, 3.0 59.5, 2.4 50.0 C 2.9 40.5, 2.8 44.5, 4.3 35.2 C 8.5 26.7, 6.8 30.2, 10.8 22.1 C 17.8 14.8, 14.9 17.3, 21.6 11.4 C 29.9 6.3, 26.3 8.1, 35.3 4.7 C 44.6 2.0, 40.5 3.3, 50.0 1.5 C 59.5 2.9, 55.4 2.5, 64.8 4.8 C 73.8 8.3, 69.8 6.9, 78.2 11.7 C 85.5 17.3, 82.5 14.6, 89.1 21.9 C 93.9 29.8, 91.7 26.2, 96.0 35.2 C 97.1 44.5, 97.4 40.5, 98.2 50.0 Z" fill="#c6a65b" />
    <path d="M 95.9 50.0 C 93.7 58.7, 95.2 55.0, 92.4 64.1 C 88.8 72.5, 91.6 68.4, 85.6 75.9 C 81.1 83.8, 83.7 79.8, 76.0 87.0 C 68.5 90.8, 71.7 88.8, 63.8 92.7 C 55.1 94.3, 58.9 94.0, 50.0 94.1 C 41.1 94.5, 44.8 95.3, 36.3 92.8 C 28.0 89.9, 31.0 90.1, 23.9 86.8 C 16.2 80.7, 19.5 82.9, 14.0 75.9 C 9.9 68.9, 10.1 72.0, 6.8 64.1 C 4.4 55.1, 6.4 58.9, 5.1 50.0 C 5.4 41.3, 5.5 44.8, 6.7 35.8 C 10.1 27.9, 9.1 31.0, 14.0 23.4 C 19.7 17.3, 17.4 19.2, 23.5 12.9 C 31.6 8.2, 28.3 10.3, 35.9 8.2 C 44.8 6.2, 41.2 5.7, 50.0 5.0 C 58.8 6.6, 55.1 6.0, 63.8 7.9 C 72.1 11.3, 68.6 9.7, 76.1 13.1 C 83.8 20.2, 80.4 17.2, 86.8 23.1 C 91.6 31.6, 89.4 27.5, 93.6 36.0 C 95.5 44.9, 93.5 41.0, 95.0 50.0 Z" fill="#bd8e2e" opacity="0.4"/>
    <path d="M 97.8 50.0 C 97.1 59.5, 97.6 55.5, 96.0 64.8 C 91.5 73.6, 93.4 70.0, 89.1 78.3 C 82.4 85.5, 85.6 82.2, 78.3 88.5 C 70.0 93.3, 73.5 91.5, 64.7 95.4 C 55.4 97.8, 59.6 96.7, 50.0 97.9 C 40.5 97.4, 44.5 97.4, 35.2 95.4 C 26.6 91.8, 30.0 93.5, 21.6 89.1 C 14.8 82.6, 17.4 85.1, 11.4 78.1 C 6.2 70.0, 8.0 73.8, 4.1 64.9 C 2.1 55.5, 3.3 59.6, 2.1 50.0 C 3.2 40.4, 2.3 44.5, 4.2 35.2 C 8.0 26.2, 6.1 30.2, 11.1 21.8 C 17.5 14.7, 14.6 17.5, 21.8 11.3 C 30.1 6.3, 26.6 8.0, 35.1 4.0 C 44.6 2.2, 40.5 3.3, 50.0 1.7 C 59.5 2.7, 55.5 2.2, 64.9 4.4 C 73.6 8.2, 70.0 6.2, 78.3 11.5 C 85.2 17.5, 82.3 14.5, 88.7 22.0 C 93.8 30.0, 91.6 26.4, 95.9 35.2 C 97.8 44.5, 97.2 40.4, 98.3 50.0 Z" fill="none" stroke="#0A0703" stroke-width="3" opacity="0.9" />
    <path d="M 94.0 50.0 C 92.8 58.8, 93.2 55.0, 91.9 63.5 C 88.4 71.7, 89.5 68.5, 85.3 76.2 C 79.4 81.9, 82.8 79.3, 75.9 85.3 C 68.3 90.6, 71.7 87.7, 63.5 92.3 C 55.0 93.7, 58.7 93.7, 50.0 93.4 C 41.2 93.3, 45.0 94.3, 36.6 91.5 C 28.3 87.9, 32.0 90.5, 24.3 86.0 C 17.6 79.8, 20.7 82.0, 14.6 75.7 C 10.2 68.4, 12.1 71.8, 8.1 63.6 C 5.6 55.1, 6.2 58.7, 5.8 50.0 C 6.7 41.3, 6.3 44.9, 8.0 36.5 C 11.7 28.0, 9.7 31.7, 15.0 24.0 C 19.8 18.0, 17.7 19.8, 24.5 14.6 C 31.5 10.3, 28.7 12.3, 36.4 8.3 C 45.0 5.6, 41.3 7.4, 50.0 6.3 C 58.7 6.3, 55.0 5.6, 63.5 8.3 C 71.7 11.1, 68.1 10.4, 76.1 15.0 C 82.9 20.1, 79.8 17.3, 86.1 24.4 C 90.0 31.6, 88.6 28.5, 91.2 36.5 C 94.0 45.0, 93.3 41.4, 94.7 50.0 Z" fill="none" stroke="#0A0703" stroke-width="1.5" opacity="0.7" />
    <path d="M 67.6 50.0 C 67.5 53.5, 66.7 55.6, 65.9 59.2 C 63.8 61.9, 61.8 63.6, 58.9 65.9 C 55.7 66.8, 53.6 67.6, 50.0 67.9 C 46.5 67.2, 44.2 66.8, 40.8 65.2 C 38.3 63.4, 36.8 61.9, 34.6 58.8 C 32.9 55.8, 32.0 53.5, 31.7 50.0 C 32.3 46.3, 32.7 44.3, 34.4 41.2 C 36.7 38.1, 37.8 36.5, 40.8 34.2 C 44.3 32.6, 46.5 32.2, 50.0 32.2 C 53.5 32.4, 55.9 33.0, 58.8 34.4 C 62.0 36.4, 63.4 38.1, 66.0 41.0 C 67.0 44.4, 67.2 46.5, 68.0 50.0 Z" fill="none" stroke="#0A0703" stroke-width="2.5" opacity="0.85" />
    <path d="M 64.1 50.0 C 64.0 52.8, 63.5 54.5, 62.2 57.1 C 60.3 59.3, 59.3 60.6, 56.9 62.2 C 54.4 63.1, 52.8 63.9, 50.0 63.8 C 47.2 63.9, 45.5 63.1, 43.0 62.3 C 40.8 60.3, 39.4 59.3, 37.9 57.1 C 36.9 54.5, 36.3 52.8, 36.1 50.0 C 36.3 47.2, 36.9 45.5, 38.0 42.9 C 39.4 40.8, 40.6 39.6, 43.0 37.8 C 45.6 36.7, 47.2 36.4, 50.0 36.0 C 52.8 36.1, 54.4 36.7, 57.0 37.9 C 59.4 39.4, 60.4 40.6, 62.1 43.0 C 63.2 45.6, 63.9 47.2, 64.1 50.0 Z" fill="none" stroke="#0A0703" stroke-width="1.5" stroke-dasharray="8 4" opacity="0.6"/>
    <path d="M 55.1 50.0 C 55.1 51.0, 54.3 52.9, 53.5 53.6 C 52.6 54.2, 51.0 54.8, 50.0 55.0 C 49.0 55.0, 47.3 54.2, 46.3 53.5 C 46.1 52.8, 45.3 51.0, 45.2 50.0 C 45.1 49.0, 45.7 47.4, 46.6 46.3 C 47.2 45.9, 49.0 45.2, 50.0 45.1 C 51.0 45.0, 52.9 45.8, 53.7 46.3 C 54.3 47.3, 54.7 49.0, 55.0 50.0 Z" fill="#0A0703" />
    <path d="M 58.6 20.0 C 58.7 21.8, 57.6 23.6, 57.0 25.2 C 55.9 26.5, 54.0 27.5, 52.5 28.4 C 51.0 28.4, 49.0 28.1, 47.3 28.3 C 45.7 27.3, 44.4 26.0, 43.2 24.9 C 41.9 23.7, 41.8 21.6, 41.9 20.0 C 41.9 18.3, 42.1 16.5, 42.8 14.8 C 44.5 13.8, 45.9 12.3, 47.4 11.8 C 49.1 11.5, 51.0 11.6, 52.5 12.0 C 54.3 12.8, 55.8 13.7, 56.9 15.2 C 57.4 16.4, 58.3 18.3, 58.7 20.0 Z" fill="#0A0703" opacity="0.95" />
    <path d="M 57.3 20.0 C 57.3 21.5, 56.9 23.2, 56.2 24.3 C 55.2 25.5, 53.6 26.6, 52.4 26.9 C 50.8 27.2, 49.2 27.3, 47.6 27.1 C 46.2 26.6, 45.0 25.4, 43.9 24.4 C 43.3 23.2, 42.6 21.5, 42.5 20.0 C 42.5 18.6, 43.0 16.8, 43.8 15.5 C 44.8 14.6, 46.3 13.3, 47.7 12.8 C 49.2 12.3, 50.8 12.5, 52.3 13.0 C 53.6 13.7, 54.9 14.4, 56.2 15.5 C 56.9 17.0, 57.3 18.5, 57.4 20.0 Z" fill="none" stroke="#bd8e2e" stroke-width="1" opacity="0.5" />
    <path d="M 58.4 80.0 C 58.3 81.7, 58.0 83.6, 56.8 84.8 C 55.7 86.3, 54.2 87.2, 52.7 88.4 C 51.0 88.3, 49.0 88.5, 47.4 87.9 C 45.7 87.3, 44.5 86.2, 43.1 85.1 C 42.3 83.5, 42.0 81.7, 41.7 80.0 C 41.7 78.3, 42.5 76.5, 43.1 75.2 C 44.4 73.5, 45.9 72.8, 47.5 72.0 C 49.1 71.3, 51.0 71.7, 52.6 72.0 C 54.3 72.3, 55.9 73.9, 57.0 74.8 C 57.6 76.4, 58.2 78.3, 58.1 80.0 Z" fill="#0A0703" opacity="0.95" />
    <path d="M 57.4 80.0 C 57.5 81.5, 56.9 83.2, 56.3 84.6 C 55.1 85.6, 53.7 86.7, 52.4 87.4 C 50.9 87.2, 49.1 87.5, 47.7 87.1 C 46.4 86.7, 45.1 85.5, 43.9 84.5 C 43.1 83.1, 42.5 81.5, 42.6 80.0 C 42.4 78.5, 43.1 76.8, 44.1 75.7 C 44.9 74.3, 46.4 73.3, 47.7 73.0 C 49.2 72.4, 50.8 72.8, 52.3 72.7 C 53.6 73.4, 55.0 74.4, 56.2 75.5 C 56.9 76.8, 57.4 78.5, 57.3 80.0 Z" fill="none" stroke="#bd8e2e" stroke-width="1" opacity="0.5" />
    <path d="M 28.5 50.0 C 28.0 51.6, 28.0 53.7, 27.2 55.1 C 25.6 56.5, 24.2 57.3, 22.5 58.2 C 21.0 58.6, 19.1 58.3, 17.4 57.9 C 16.0 57.7, 14.1 56.4, 13.1 54.8 C 12.0 53.4, 11.4 51.6, 11.8 50.0 C 11.7 48.4, 12.0 46.6, 13.1 45.2 C 14.1 43.5, 15.8 42.5, 17.3 42.0 C 19.0 41.7, 21.0 41.3, 22.6 41.6 C 24.0 42.4, 25.6 43.6, 27.1 44.9 C 27.9 46.4, 28.0 48.2, 28.9 50.0 Z" fill="#0A0703" opacity="0.95" />
    <path d="M 27.5 50.0 C 27.2 51.5, 26.9 53.0, 26.1 54.3 C 25.1 55.7, 23.8 56.4, 22.3 57.3 C 20.8 57.7, 19.2 57.6, 17.6 57.1 C 16.3 56.4, 14.8 55.5, 13.9 54.5 C 13.0 53.0, 12.6 51.5, 12.5 50.0 C 12.4 48.5, 13.2 46.8, 14.0 45.6 C 14.8 44.6, 16.4 43.3, 17.6 42.9 C 19.1 42.5, 20.9 42.5, 22.3 42.8 C 23.7 43.6, 24.9 44.4, 26.3 45.7 C 26.7 46.9, 27.5 48.5, 27.3 50.0 Z" fill="none" stroke="#bd8e2e" stroke-width="1" opacity="0.5" />
    <path d="M 88.2 50.0 C 88.0 51.7, 88.0 53.4, 87.0 55.1 C 85.8 56.2, 84.2 57.2, 82.6 58.2 C 80.9 58.7, 79.0 58.4, 77.3 58.2 C 75.9 57.4, 74.1 56.1, 72.9 55.1 C 72.5 53.5, 71.8 51.7, 71.1 50.0 C 71.4 48.2, 72.4 46.4, 73.2 44.9 C 74.3 43.6, 75.9 42.8, 77.4 41.6 C 79.0 41.5, 81.0 41.4, 82.6 41.9 C 84.0 42.7, 85.5 43.5, 86.6 45.2 C 88.0 46.5, 88.1 48.3, 88.2 50.0 Z" fill="#0A0703" opacity="0.95" />
    <path d="M 87.4 50.0 C 87.3 51.5, 87.0 53.2, 86.2 54.3 C 85.0 55.4, 83.8 56.6, 82.4 57.2 C 80.9 57.6, 79.2 57.7, 77.6 57.1 C 76.4 56.6, 74.8 55.5, 73.9 54.5 C 73.2 53.0, 72.6 51.5, 72.6 50.0 C 72.8 48.5, 73.3 46.8, 74.0 45.5 C 74.8 44.6, 76.4 43.4, 77.7 43.1 C 79.1 42.6, 80.8 42.6, 82.2 43.0 C 83.6 43.7, 85.2 44.6, 86.1 45.6 C 86.7 46.9, 87.5 48.5, 87.3 50.0 Z" fill="none" stroke="#bd8e2e" stroke-width="1" opacity="0.5" />
    <path d="M 33.7 29.0 C 34.1 30.1, 33.6 30.9, 33.1 32.0 C 32.6 32.8, 31.6 33.3, 30.5 33.9 C 29.6 34.0, 28.4 33.8, 27.5 33.9 C 26.5 33.2, 25.5 32.5, 24.7 32.0 C 24.3 31.0, 24.3 29.9, 23.7 29.0 C 24.4 28.0, 24.6 26.8, 24.8 26.1 C 25.9 25.3, 26.6 24.9, 27.5 24.1 C 28.5 24.1, 29.6 23.6, 30.6 24.3 C 31.6 24.7, 32.6 25.1, 33.2 26.1 C 33.4 26.8, 33.7 27.9, 34.1 29.0 Z" fill="#0A0703" opacity="0.95" />
    <path d="M 33.2 29.0 C 33.2 29.8, 32.7 30.7, 32.0 31.5 C 31.6 31.8, 31.0 32.4, 30.2 33.0 C 29.5 33.1, 28.6 32.8, 27.8 32.7 C 27.0 32.5, 26.1 32.0, 25.7 31.2 C 25.3 30.7, 24.9 29.8, 25.0 29.0 C 25.0 28.2, 25.2 27.4, 25.7 26.8 C 26.3 26.1, 27.0 25.7, 27.8 25.1 C 28.5 24.8, 29.5 25.1, 30.3 25.1 C 30.9 25.7, 31.8 26.0, 32.4 26.6 C 32.5 27.4, 33.0 28.2, 32.9 29.0 Z" fill="none" stroke="#bd8e2e" stroke-width="1" opacity="0.5" />
    <path d="M 76.2 29.0 C 75.8 30.0, 75.3 31.2, 75.0 32.1 C 74.3 32.7, 73.5 33.5, 72.4 33.8 C 71.5 34.3, 70.4 33.8, 69.6 34.1 C 68.5 33.3, 67.7 32.5, 66.8 32.2 C 66.3 31.0, 66.4 29.9, 66.1 29.0 C 66.4 28.0, 66.2 26.9, 67.0 26.2 C 67.7 25.4, 68.4 24.7, 69.4 24.0 C 70.5 23.7, 71.5 23.7, 72.5 24.1 C 73.5 24.3, 74.6 25.4, 75.1 25.9 C 75.8 26.9, 75.6 28.0, 76.0 29.0 Z" fill="#0A0703" opacity="0.95" />
    <path d="M 74.8 29.0 C 75.0 29.8, 74.5 30.7, 74.1 31.4 C 73.6 32.0, 73.0 32.4, 72.3 33.0 C 71.5 32.9, 70.5 32.9, 69.8 33.0 C 69.1 32.3, 68.1 31.8, 67.6 31.5 C 67.2 30.7, 67.2 29.8, 66.9 29.0 C 66.9 28.3, 67.6 27.3, 67.6 26.8 C 68.2 26.2, 69.0 25.3, 69.8 25.2 C 70.5 24.8, 71.4 24.9, 72.3 25.1 C 73.0 25.4, 73.7 26.0, 74.1 26.6 C 74.8 27.4, 74.8 28.2, 74.9 29.0 Z" fill="none" stroke="#bd8e2e" stroke-width="1" opacity="0.5" />
    <path d="M 33.7 71.0 C 34.0 71.9, 33.2 73.1, 33.2 73.9 C 32.2 74.6, 31.6 75.5, 30.6 75.6 C 29.6 75.7, 28.4 76.1, 27.4 76.0 C 26.6 75.5, 25.8 74.5, 25.0 74.0 C 24.3 73.1, 24.4 71.9, 24.3 71.0 C 24.4 69.9, 24.6 68.8, 24.7 67.9 C 25.8 67.5, 26.4 66.9, 27.3 66.0 C 28.5 66.1, 29.5 66.0, 30.5 66.2 C 31.5 67.0, 32.3 67.3, 33.1 68.2 C 33.8 69.1, 34.0 70.0, 33.9 71.0 Z" fill="#0A0703" opacity="0.95" />
    <path d="M 32.8 71.0 C 33.1 71.8, 32.7 72.6, 32.4 73.4 C 31.8 74.0, 31.0 74.6, 30.2 74.9 C 29.5 74.9, 28.5 74.7, 27.8 74.6 C 27.1 74.4, 26.4 74.1, 25.6 73.3 C 25.1 72.6, 25.2 71.8, 25.2 71.0 C 24.9 70.2, 25.3 69.3, 25.9 68.6 C 26.5 68.2, 27.0 67.7, 27.8 67.2 C 28.5 66.9, 29.5 66.8, 30.3 67.2 C 30.9 67.5, 31.6 68.1, 32.0 68.5 C 32.8 69.2, 32.7 70.2, 33.0 71.0 Z" fill="none" stroke="#bd8e2e" stroke-width="1" opacity="0.5" />
    <path d="M 76.3 71.0 C 75.7 72.1, 75.5 73.1, 75.0 73.9 C 74.5 74.7, 73.6 75.1, 72.5 75.6 C 71.6 75.8, 70.4 76.3, 69.4 76.0 C 68.5 75.1, 67.4 74.9, 66.9 73.7 C 66.6 73.1, 65.8 72.0, 66.1 71.0 C 66.0 70.0, 66.1 69.1, 66.7 68.0 C 67.4 67.6, 68.7 66.6, 69.3 66.5 C 70.4 65.8, 71.6 66.3, 72.6 66.6 C 73.4 66.7, 74.2 67.5, 74.8 68.2 C 75.6 68.8, 76.2 70.0, 76.4 71.0 Z" fill="#0A0703" opacity="0.95" />
    <path d="M 74.8 71.0 C 75.0 71.8, 74.7 72.7, 74.3 73.5 C 73.6 74.0, 73.0 74.4, 72.3 74.7 C 71.5 74.9, 70.5 74.8, 69.8 74.9 C 68.9 74.4, 68.2 73.9, 67.8 73.3 C 67.3 72.8, 67.1 71.8, 67.2 71.0 C 67.2 70.2, 67.5 69.3, 67.6 68.6 C 68.4 68.0, 69.1 67.3, 69.7 67.3 C 70.5 66.9, 71.4 66.9, 72.2 67.1 C 73.0 67.7, 73.8 67.9, 74.3 68.6 C 74.8 69.2, 75.1 70.2, 75.1 71.0 Z" fill="none" stroke="#bd8e2e" stroke-width="1" opacity="0.5" />
    <circle cx="58.9" cy="42.6" r="0.8954490018851244" fill="#0A0703" opacity="0.54" />
    <circle cx="81.3" cy="54.6" r="1.1368666555080391" fill="#0A0703" opacity="0.38" />
    <circle cx="83.4" cy="35.1" r="0.18031466510254193" fill="#0A0703" opacity="0.44" />
    <circle cx="21.3" cy="64.7" r="0.059513544864561396" fill="#0A0703" opacity="0.32" />
    <circle cx="12.7" cy="52.9" r="0.7995952183939353" fill="#0A0703" opacity="0.39" />
    <circle cx="73.7" cy="35.3" r="0.313620456048255" fill="#0A0703" opacity="0.58" />
    <circle cx="70.0" cy="75.6" r="1.1223484212256554" fill="#0A0703" opacity="0.21" />
    <circle cx="59.4" cy="71.6" r="0.07161616906279651" fill="#0A0703" opacity="0.59" />
    <circle cx="56.5" cy="55.7" r="0.595027515944123" fill="#0A0703" opacity="0.22" />
    <circle cx="53.3" cy="26.5" r="1.0260088468034765" fill="#0A0703" opacity="0.24" />
    <circle cx="39.3" cy="33.5" r="0.22831679169224017" fill="#0A0703" opacity="0.31" />
    <circle cx="40.1" cy="40.2" r="0.316292119030385" fill="#0A0703" opacity="0.13" />
    <circle cx="80.0" cy="76.9" r="0.18758167382474467" fill="#0A0703" opacity="0.14" />
    <circle cx="30.2" cy="83.6" r="0.018154960460221182" fill="#0A0703" opacity="0.36" />
    <circle cx="57.0" cy="47.0" r="1.14390258130263" fill="#0A0703" opacity="0.16" />
    <circle cx="59.6" cy="56.7" r="1.0983747171488614" fill="#0A0703" opacity="0.45" />
    <circle cx="58.4" cy="31.2" r="1.1538835539742633" fill="#0A0703" opacity="0.13" />
    <circle cx="83.9" cy="32.6" r="0.9146915611145203" fill="#0A0703" opacity="0.59" />
    <circle cx="61.4" cy="62.5" r="1.0227269849538525" fill="#0A0703" opacity="0.46" />
    <circle cx="78.3" cy="56.9" r="0.32737006562382903" fill="#0A0703" opacity="0.33" />
    <circle cx="80.6" cy="27.7" r="0.8155768832598344" fill="#0A0703" opacity="0.25" />
    <circle cx="48.9" cy="42.9" r="0.7042263808386685" fill="#0A0703" opacity="0.49" />
    <circle cx="71.8" cy="63.4" r="0.5509642335582946" fill="#0A0703" opacity="0.58" />
    <circle cx="41.4" cy="40.7" r="0.013152787780429253" fill="#0A0703" opacity="0.48" />
    <circle cx="68.6" cy="67.3" r="0.8568661196469487" fill="#0A0703" opacity="0.27" />
    <circle cx="46.2" cy="31.6" r="0.37961351630741186" fill="#0A0703" opacity="0.50" />
    <circle cx="38.8" cy="27.9" r="0.7733858335637929" fill="#0A0703" opacity="0.21" />
    <circle cx="54.3" cy="35.5" r="0.2543206315316605" fill="#0A0703" opacity="0.32" />
    <circle cx="25.3" cy="16.4" r="1.0475263265690644" fill="#0A0703" opacity="0.22" />
    <circle cx="62.4" cy="11.1" r="0.028556376819447536" fill="#0A0703" opacity="0.41" />
    <circle cx="35.9" cy="37.5" r="0.4459875802893986" fill="#0A0703" opacity="0.17" />
    <circle cx="47.1" cy="64.9" r="0.4797656937699324" fill="#0A0703" opacity="0.37" />
    <circle cx="23.2" cy="59.2" r="0.4749333993210759" fill="#0A0703" opacity="0.55" />
    <circle cx="41.1" cy="35.7" r="1.1104519581596775" fill="#0A0703" opacity="0.31" />
    <circle cx="41.1" cy="55.9" r="0.8304553061039001" fill="#0A0703" opacity="0.34" />
  </g>
</svg>