<svg width="100" height="100" viewBox="0 0 100 100" xmlns="http://www.w3.org/2000/svg">
  <defs>
    <!-- Organic ink stamp filter -->
    <filter id="stamp" x="-20%" y="-20%" width="140%" height="140%">
      <feTurbulence type="fractalNoise" baseFrequency="0.9" numOctaves="3" result="noise" />
      <feDisplacementMap in="SourceGraphic" in2="noise" scale="2.5" xChannelSelector="R" yChannelSelector="G" result="displaced" />
      <feGaussianBlur in="displaced" stdDeviation="0.4" result="blurred" />
      <feColorMatrix type="matrix" values="
        1 0 0 0 0 
        0 1 0 0 0 
        0 0 1 0 0 
        0 0 0 1.2 -0.1" in="blurred" result="sharpened" />
      <feComposite in="SourceGraphic" in2="sharpened" operator="over" />
    </filter>
  </defs>
  
  <g filter="url(#stamp)">
    <path d="M 98.5 50.0 C 97.2 59.5, 97.3 55.5, 95.2 64.7 C 91.7 73.8, 93.3 69.9, 89.0 77.9 C 82.8 85.7, 85.7 82.3, 78.5 89.1 C 70.0 93.5, 73.5 91.7, 64.8 95.6 C 55.4 97.4, 59.5 96.8, 50.0 98.1 C 40.5 96.9, 44.5 97.6, 35.2 96.1 C 26.4 92.2, 29.9 93.5, 21.7 89.1 C 14.8 82.7, 17.9 85.4, 11.2 78.2 C 6.0 69.9, 8.0 73.8, 4.2 64.7 C 2.6 55.5, 3.3 59.6, 1.6 50.0 C 2.5 40.4, 2.4 44.5, 4.3 35.1 C 8.1 26.2, 6.2 29.9, 11.5 22.0 C 17.8 14.9, 14.8 17.3, 21.7 11.2 C 30.1 6.1, 26.5 8.0, 35.2 4.7 C 44.5 2.1, 40.4 3.0, 50.0 1.6 C 59.6 2.7, 55.5 2.0, 64.7 4.6 C 73.8 8.0, 69.8 6.7, 78.5 11.3 C 85.0 17.7, 82.6 14.9, 88.9 21.9 C 93.8 29.9, 91.7 26.4, 95.4 35.1 C 97.7 44.6, 97.0 40.5, 98.4 50.0 Z" fill="#c6a65b" />
    <path d="M 94.3 50.0 C 94.1 59.0, 94.0 55.2, 92.2 63.7 C 89.7 72.4, 91.6 68.5, 86.8 76.6 C 80.0 82.7, 82.7 80.1, 76.8 86.4 C 68.6 91.3, 72.3 88.7, 64.1 93.1 C 55.0 95.2, 59.0 94.8, 50.0 95.3 C 41.0 94.2, 44.8 94.7, 36.1 92.9 C 27.7 88.6, 31.1 91.6, 23.2 86.8 C 16.4 80.3, 19.4 83.2, 13.1 76.6 C 8.9 68.6, 10.5 72.3, 6.5 63.8 C 5.5 55.1, 5.2 59.1, 5.0 50.0 C 6.2 41.0, 5.2 44.8, 7.3 35.9 C 10.2 28.0, 8.9 31.4, 13.6 23.6 C 19.4 16.5, 17.2 19.4, 23.4 13.4 C 31.4 9.2, 28.2 10.2, 36.2 7.6 C 44.9 5.2, 41.0 5.4, 50.0 4.5 C 58.8 6.5, 55.2 5.6, 64.0 6.8 C 72.4 10.8, 68.8 8.7, 76.5 13.2 C 83.5 19.4, 80.9 16.5, 86.1 23.2 C 91.4 31.0, 88.8 27.8, 92.4 35.9 C 94.9 44.8, 93.8 41.0, 94.3 50.0 Z" fill="#bd8e2e" opacity="0.3"/>
    <path d="M 87.7 50.0 C 87.4 57.5, 88.3 54.3, 85.7 61.6 C 83.4 68.7, 84.8 65.7, 81.2 72.6 C 75.8 78.1, 78.3 75.5, 72.7 80.8 C 65.8 84.3, 68.6 83.4, 61.9 86.1 C 54.3 87.9, 57.6 87.1, 50.0 88.3 C 42.4 87.0, 45.7 87.9, 38.1 86.6 C 31.3 83.5, 34.1 85.1, 28.0 81.1 C 21.9 75.6, 23.9 77.7, 19.1 72.1 C 15.3 65.7, 16.9 68.7, 13.8 61.6 C 12.3 54.4, 12.2 57.6, 11.5 50.0 C 12.6 42.5, 12.3 45.6, 13.7 38.2 C 16.8 31.4, 15.9 34.2, 19.3 27.4 C 24.2 21.8, 22.1 24.6, 27.4 19.3 C 34.0 15.8, 31.3 17.1, 38.1 13.9 C 45.7 12.1, 42.4 12.8, 50.0 11.9 C 57.5 12.9, 54.3 12.7, 61.9 14.0 C 68.6 17.4, 65.9 15.4, 72.6 19.1 C 78.0 24.6, 75.6 22.2, 80.9 27.8 C 84.7 34.2, 82.9 31.1, 85.8 38.4 C 88.0 45.7, 87.6 42.5, 87.9 50.0 Z" fill="none" stroke="#0A0703" stroke-width="4" opacity="0.9" />
    <path d="M 19.61793608692151 43.8412507453531 L 21.5 38.0 L 24.5 32.4 L 28.4 27.8 L 33.1 24.0 " fill="none" stroke="#0A0703" stroke-width="2" stroke-linecap="round" />
    <path d="M 33.250628518087666 76.0856005290448 L 28.4 72.1 L 24.5 67.6 L 21.6 62.1 L 19.6 56.2 " fill="none" stroke="#0A0703" stroke-width="2" stroke-linecap="round" />
    <path d="M 62.1 50.0 C 61.6 52.4, 61.7 53.7, 60.1 56.1 C 59.2 57.9, 58.0 59.0, 56.1 60.2 C 53.9 61.5, 52.4 61.7, 50.0 62.0 C 47.7 61.7, 46.3 61.4, 43.9 60.5 C 42.0 59.1, 40.8 58.2, 39.5 56.2 C 38.5 53.8, 37.9 52.4, 37.8 50.0 C 38.2 47.6, 38.3 46.3, 39.4 44.0 C 40.9 42.2, 42.2 41.2, 43.8 39.7 C 46.3 38.6, 47.6 37.9, 50.0 38.0 C 52.4 38.1, 53.9 38.6, 56.1 39.4 C 58.0 41.0, 59.2 41.9, 60.6 44.0 C 61.2 46.3, 62.0 47.6, 62.3 50.0 Z" fill="none" stroke="#0A0703" stroke-width="2" />
    <path d="M 54.2 50.0 C 53.9 50.8, 53.2 52.3, 52.8 53.0 C 52.3 53.4, 50.8 54.2, 50.0 54.0 C 49.2 53.8, 47.7 53.4, 47.1 52.7 C 46.8 52.2, 45.9 50.8, 46.0 50.0 C 46.1 49.2, 46.7 47.7, 47.1 47.3 C 47.9 46.7, 49.2 46.0, 50.0 46.2 C 50.8 46.3, 52.1 46.6, 52.7 47.2 C 53.4 47.7, 53.9 49.2, 54.0 50.0 Z" fill="#0A0703" />
    <path d="M 58.7 30.0 C 58.3 31.6, 57.6 33.6, 56.7 35.2 C 55.5 36.2, 54.0 37.2, 52.5 38.3 C 51.0 38.5, 49.1 38.8, 47.3 38.0 C 45.7 37.4, 44.0 36.5, 42.8 35.0 C 42.3 33.6, 42.0 31.7, 41.3 30.0 C 41.9 28.3, 42.5 26.5, 43.4 24.9 C 44.1 23.7, 46.0 22.3, 47.3 21.8 C 49.0 21.3, 50.9 21.9, 52.7 21.6 C 54.4 22.4, 55.8 23.5, 56.9 24.8 C 57.5 26.4, 58.5 28.4, 58.2 30.0 Z" fill="#0A0703" />
    <!-- Inner detail -->
    <path d="M 54.11449676604731 35.66311896062463 L 50.6 36.9 L 46.8 36.2 L 44.2 33.6 L 42.8 30.0 " fill="none" stroke="#bd8e2e" stroke-width="1.5" opacity="0.6" />
    <path d="M 77.5 43.8 C 77.2 45.5, 77.0 47.5, 75.8 48.9 C 74.5 50.1, 73.1 51.5, 71.6 52.2 C 70.0 52.1, 68.0 52.6, 66.3 51.7 C 65.0 51.5, 63.2 50.1, 62.0 48.6 C 61.1 47.3, 60.3 45.5, 60.6 43.8 C 60.7 42.2, 61.6 40.3, 61.9 38.6 C 63.1 37.8, 64.7 36.7, 66.3 35.7 C 68.1 35.3, 70.0 35.7, 71.7 35.5 C 73.3 36.3, 74.6 37.5, 76.2 38.6 C 76.5 40.3, 77.3 42.1, 77.7 43.8 Z" fill="#0A0703" />
    <!-- Inner detail -->
    <path d="M 64.90663355985576 49.482779073125684 L 62.4 46.4 L 62.1 42.7 L 63.8 39.2 L 66.9 37.2 " fill="none" stroke="#bd8e2e" stroke-width="1.5" opacity="0.6" />
    <path d="M 69.9 66.2 C 69.8 67.9, 69.8 69.8, 68.5 71.2 C 67.5 72.4, 65.9 73.6, 64.5 74.5 C 62.7 74.4, 60.8 74.3, 59.2 74.3 C 57.5 73.6, 55.9 72.6, 55.2 71.2 C 53.9 69.8, 53.5 67.8, 53.2 66.2 C 53.6 64.5, 54.1 62.8, 54.9 61.2 C 55.9 60.1, 57.4 58.9, 59.1 58.1 C 60.8 57.7, 62.8 57.5, 64.4 58.1 C 65.9 58.9, 67.7 59.7, 68.8 61.1 C 69.7 62.5, 70.0 64.6, 70.5 66.2 Z" fill="#0A0703" />
    <!-- Inner detail -->
    <path d="M 55.09830943178339 64.01722092687432 L 57.3 60.8 L 60.7 59.3 L 64.5 59.7 L 67.5 62.0 " fill="none" stroke="#bd8e2e" stroke-width="1.5" opacity="0.6" />
    <path d="M 47.0 66.2 C 46.5 67.8, 46.3 69.6, 45.2 71.1 C 43.8 72.3, 42.6 73.4, 40.9 74.0 C 39.2 74.6, 37.3 74.3, 35.5 74.5 C 34.0 73.5, 32.5 72.3, 31.3 71.3 C 30.7 69.8, 30.0 67.8, 29.7 66.2 C 30.3 64.5, 30.3 62.8, 31.2 60.9 C 32.3 60.0, 33.9 58.5, 35.6 58.2 C 37.2 58.0, 39.2 57.5, 40.8 58.2 C 42.4 58.9, 44.0 60.0, 44.9 61.2 C 45.9 62.5, 46.6 64.5, 46.8 66.2 Z" fill="#0A0703" />
    <!-- Inner detail -->
    <path d="M 38.24429495415054 59.180339887498945 L 41.9 60.3 L 44.6 62.9 L 45.1 66.7 L 43.8 70.2 " fill="none" stroke="#bd8e2e" stroke-width="1.5" opacity="0.6" />
    <path d="M 39.7 43.8 C 39.5 45.4, 38.4 47.3, 38.0 49.0 C 36.9 50.3, 35.3 51.4, 33.7 51.8 C 31.9 52.6, 30.0 52.6, 28.3 51.6 C 26.7 51.0, 25.0 50.2, 24.1 48.7 C 23.2 47.2, 22.9 45.5, 22.8 43.8 C 22.8 42.2, 23.2 40.2, 23.9 38.9 C 25.0 37.9, 27.0 36.5, 28.4 35.9 C 30.0 35.7, 31.9 35.0, 33.5 35.7 C 35.0 36.1, 36.9 37.7, 37.8 38.8 C 39.0 40.2, 39.1 42.1, 39.1 43.8 Z" fill="#0A0703" />
    <!-- Inner detail -->
    <path d="M 37.636265288163 41.65654115187642 L 37.8 45.5 L 36.0 48.6 L 32.6 50.5 L 28.8 50.7 " fill="none" stroke="#bd8e2e" stroke-width="1.5" opacity="0.6" />
    <circle cx="75.0" cy="13.7" r="0.7151293698870366" fill="#0A0703" opacity="0.15" />
    <circle cx="80.5" cy="60.4" r="0.025279790600400618" fill="#0A0703" opacity="0.13" />
    <circle cx="83.2" cy="44.5" r="1.0855636938349704" fill="#0A0703" opacity="0.37" />
    <circle cx="27.6" cy="74.6" r="0.651647032889857" fill="#0A0703" opacity="0.35" />
    <circle cx="23.3" cy="24.1" r="0.44980900114245687" fill="#0A0703" opacity="0.39" />
    <circle cx="92.2" cy="47.8" r="1.163787059552513" fill="#0A0703" opacity="0.38" />
    <circle cx="78.6" cy="64.2" r="1.0849462801152432" fill="#0A0703" opacity="0.29" />
    <circle cx="86.6" cy="37.9" r="0.08970525377715063" fill="#0A0703" opacity="0.17" />
    <circle cx="40.0" cy="62.1" r="1.1507413023280553" fill="#0A0703" opacity="0.47" />
    <circle cx="67.2" cy="72.8" r="0.3430518856476921" fill="#0A0703" opacity="0.49" />
    <circle cx="9.0" cy="60.7" r="0.8378000476810374" fill="#0A0703" opacity="0.50" />
    <circle cx="66.5" cy="82.7" r="1.007483820403977" fill="#0A0703" opacity="0.24" />
    <circle cx="76.4" cy="44.0" r="0.17055955703394216" fill="#0A0703" opacity="0.48" />
    <circle cx="22.0" cy="22.5" r="0.15827710975574635" fill="#0A0703" opacity="0.15" />
    <circle cx="38.1" cy="49.6" r="0.5515242014186159" fill="#0A0703" opacity="0.33" />
    <circle cx="82.0" cy="66.5" r="0.2572491668561598" fill="#0A0703" opacity="0.35" />
    <circle cx="60.8" cy="52.2" r="0.4487597572312586" fill="#0A0703" opacity="0.42" />
    <circle cx="35.8" cy="55.2" r="0.11476747947203267" fill="#0A0703" opacity="0.20" />
    <circle cx="16.7" cy="78.0" r="0.34710465684765507" fill="#0A0703" opacity="0.47" />
    <circle cx="60.0" cy="79.0" r="1.1346824213600437" fill="#0A0703" opacity="0.16" />
  </g>
</svg>