<svg id="svg" version="1.1" viewBox="0 0 300 299.32584269662925" width="300" height="299.32584269662925" xmlns="http://www.w3.org/2000/svg"><svg xmlns="http://www.w3.org/2000/svg"><defs><clipPath id="clip-1"><rect x="0" y="0" transform="scale(0.16854,0.16854)" width="1780" height="1776" fill="none"/></clipPath><linearGradient x1="180.8073" y1="124.70376" x2="180.57978" y2="122.72107" gradientUnits="userSpaceOnUse" id="color-1"><stop offset="0" stop-color="#000000" stop-opacity="0"/><stop offset="1" stop-color="#010101" stop-opacity="0.03529"/></linearGradient></defs><g clip-path="url(#clip-1)" fill="none" fill-rule="nonzero" stroke="none" stroke-width="1" stroke-linecap="butt" stroke-linejoin="miter" stroke-miterlimit="10" stroke-dasharray="" stroke-dashoffset="0" font-family="none" font-weight="none" font-size="none" text-anchor="none" style="mix-blend-mode: normal"><path d="M157.15787,43.7341c5.22287,0.23562 11.29365,2.76876 16.56067,3.59882c0.89831,0.14191 3.25449,0.62899 3.87809,1.15888c0.10955,0.46803 0.08764,0.45961 0.02865,0.94466c0.30337,0.53713 0.8764,0.66236 1.44607,0.81287c2.87865,0.75994 5.80618,1.27163 8.66798,2.10539c0.74831,0.21775 1.85899,-0.47899 2.68652,-0.04871c1.77303,0.57792 3.26798,1.47236 4.9618,2.15073c2.76067,1.10545 6.53933,2.07067 9.09438,3.47882c2.43034,1.33921 5.23989,3.54489 7.54382,5.15528c2.23315,1.56084 4.47472,3.39051 6.66067,5.05264c1.57584,1.19747 3.76854,2.5864 5.19438,3.84893c3.68258,3.25989 7.21011,7.01815 10.70225,10.49831c1.47135,1.46697 2.8264,4.15888 4.34663,5.80281l-0.2427,0.52584c0.56124,1.65084 1.62135,2.96646 2.94944,4.07242l0.29326,0.06034c-0.24607,-0.65444 -0.52921,-0.94635 -0.44157,-1.49494c2.6427,2.23534 4.70225,7.11742 6.58989,9.91146c2.99831,4.4373 4.58933,8.75596 6.48876,13.70191c1.2236,3.18978 0.92697,5.13978 3.29494,7.85983c-0.64719,0.28888 -1.13933,0.405 -1.48315,0.9932c-0.19719,0.86191 0.28146,1.65388 0.64045,2.51815c-2.35955,1.78163 -2.4,2.75427 -4.10393,5.05348c-0.60674,0.81961 -1.81348,2.14517 -2.53146,2.96073c0.11461,0.42404 0.04719,0.26427 0.35899,0.61618c-0.95056,3.00236 -15.16854,17.70472 -18.25955,20.3577c-3.35562,2.88101 -8.95449,6.645 -12.45674,9.7473c-0.50562,-0.37551 -0.65393,-0.645 -1.12753,-0.60792c-0.01517,0.51961 -0.08596,1.53101 -0.56966,1.84921c-3.81742,2.50854 -7.83876,4.59674 -11.7236,7.04562l-0.27472,-0.47865c-0.79888,-0.71798 -2.81966,0.44326 -3.16348,1.27921c0.12809,0.43315 0.15674,0.32697 0.6573,0.64213c-1.04831,0.8882 -1.4882,1.04831 -2.8382,1.36685c-1.04831,0.60169 -2.54326,0.36573 -3.65056,0.0118c-1.30955,-0.74831 -2.21292,0.22416 -3.30169,0.31348c-0.40618,0.03371 -0.26629,-0.38258 -0.97753,-0.56629c-0.59494,0.53764 -1.62809,1.63315 -2.1118,2.26685c0.42135,0.19382 2.27191,-0.10112 3.03371,-0.11629l0.02191,0.16517c-0.67416,0.43483 -3.07079,1.87247 -3.74157,1.53371c-0.0927,-0.38258 -0.18034,-0.71798 -0.28989,-1.09719l-0.26292,0.03202c-0.28483,0.55281 -0.23596,1.05337 -0.25787,1.68539c-4.55562,0.74831 -7.60618,2.21798 -11.82135,3.85787c-1.34494,0.52247 -4.19494,0.42135 -5.74888,0.71292c-1.96517,0.3691 -4.15921,0.71292 -6.15371,0.95562c-4.75045,0.33708 -11.04489,-1.12416 -15.73989,-0.40787c-6.75742,1.03315 -10.68742,-0.2073 -17.16236,-1.39888c-9.36337,-1.72416 -18.49112,-3.25112 -27.18624,-7.38034c-5.32011,-2.5264 -10.93449,-4.54045 -15.91618,-7.87753c-8.57697,-4.84719 -26.70388,-26.28472 -36.08107,-26.65702c-0.41275,0.31011 -0.2823,0.33792 -0.3873,1.05472l-0.21472,0.13618c-0.22011,-0.23478 -1.26472,-1.34983 -1.45719,-1.40697c-6.94163,-2.06528 -10.83522,-4.52511 -13.19831,-11.8318c0.45118,-2.09292 0.34669,-4.53843 2.09646,-5.75461c0.85551,-0.59461 1.68017,-1.24348 2.38618,-2.00933l0.15489,-0.17006c0.14781,-1.15584 0.21893,-3.43753 2.0309,-3.03843c0.11933,0.59343 -0.41629,0.62157 -0.29242,1.32809c2.64202,0.71781 2.67169,-3.08343 4.60803,-4.19612c0.99152,-0.56983 3.45522,-1.65421 3.94854,-2.43843c1.51281,-2.40506 1.86961,-5.60612 3.23242,-8.1209c1.425,-2.7868 2.99646,-4.83185 4.63584,-7.37713c3.17022,-4.92202 6.48287,-9.55315 10.36517,-13.95404c1.59404,-1.80691 3.73449,-3.73028 5.43927,-5.49455c1.57938,-1.37966 3.04483,-3.50781 4.65185,-4.79292c3.3536,-2.68163 6.62242,-5.70337 9.92427,-8.40236c3.26292,-2.74129 7.11253,-4.62067 10.65017,-6.83511c8.03831,-5.03157 16.81146,-8.58034 25.97292,-10.97309c2.33444,-0.60978 6.8427,-1.89893 9.12674,-2.02652c0.80899,-0.16028 8.48596,-0.85062 8.79758,-0.81101c0.31281,0.34652 0.23056,0.35006 0.35225,0.86242l0.15152,0.37551c2.40034,0.06826 4.80202,0.08949 7.2032,0.06371c1.98152,-0.01079 4.14034,-0.10753 6.09421,0.17747c0.93404,0.13635 1.69281,0.52904 2.56601,0.74697c-1.37949,-0.89225 -4.27584,-2.66983 -5.31927,-3.68461zM67.93129,97.43629c2.85674,-1.58073 5.07118,-3.25163 8.23567,-4.44674c6.60455,-2.49455 13.52629,-4.48112 20.49017,-5.68315c10.69989,-1.75652 20.98551,-5.77584 31.90888,-3.8614c1.60213,0.28096 3.35949,0.1591 5.0968,0.49146c-2.3523,0.35292 -5.28691,0.67399 -7.70562,0.92916c-0.76213,0.08039 -1.74185,-0.82584 -2.60511,-0.19517c-1.35742,1.11843 -3.11258,1.61427 -4.8364,1.85461c-2.02989,0.47511 -3.70112,0.59326 -5.78444,0.68596c-4.67511,1.30129 -9.73601,2.18309 -14.4423,3.51742c-2.36292,0.66994 -5.0491,0.89713 -7.43006,1.5986c-2.48376,0.65663 -4.93331,1.76562 -7.36803,2.59062c-7.10107,2.40607 -14.14534,5.13253 -20.50517,9.13399c-1.22073,0.78708 -5.27713,7.29539 -6.12674,8.72225c1.49343,-0.70837 3.01129,-1.35539 4.51719,-2.05567c1.41152,-0.65646 3.05933,-1.85848 4.46107,-2.38045c3.76062,-1.29455 7.72382,-3.2791 11.49152,-4.39315c4.16949,-1.23287 8.75191,-2.72949 12.97803,-3.6841c9.73938,-2.19978 19.28022,-5.19 29.10573,-7.02775c4.35893,-0.81539 8.85421,-0.98461 13.25292,-1.50944c1.8836,-0.23039 4.53708,0.03337 6.41562,-0.44191c1.98101,-0.29798 12.11494,-0.42556 14.24646,-0.20242c3.46197,-1.04899 6.6632,-0.675 10.15534,-0.36978l7.93011,0.67938c1.60112,0.14478 3.23596,0.23629 4.84213,0.29343c6.69607,0.23865 13.18483,2.00528 19.72584,3.27708c2.8382,0.51 5.77584,0.75792 8.58202,1.4432c1.91124,0.4109 3.92865,1.52461 5.79101,1.95084c4.18483,0.9573 8.07809,2.2923 12.11292,3.70955c2.32921,0.81758 4.73596,1.27989 7.00449,2.36326c2.62921,1.25528 5.15393,2.61758 7.65337,4.11202c2.37472,1.37444 4.84551,2.60494 7.08034,4.2118c1.24045,0.8368 2.41517,1.75534 3.61348,2.64539c0.73315,0.54438 1.95506,2.0732 2.82978,1.81871c-0.01348,-0.88045 -1.82191,-3.85787 -2.3191,-4.73612c-0.97079,-1.72163 -1.87753,-3.74444 -3.22416,-5.19236c-1.0382,-1.11792 -2.28876,-1.68489 -3.57135,-2.45579c-5.90056,-3.95039 -12.36404,-6.75455 -18.97079,-9.29073c-2.48427,-0.95376 -4.9264,-2.23584 -7.48989,-3.02039c-2.3191,-0.70972 -4.69888,-1.27584 -7.04831,-1.89607c-4.49157,-1.20607 -9,-2.34303 -13.52697,-3.4109c-5.36798,-1.23809 -10.97191,-1.74607 -15.96573,-3.42556c1.42753,-0.23056 3.47528,-0.19567 4.94663,-0.19416c8.28708,0.00893 16.11573,2.00882 24.15337,3.71949c2.7927,0.69843 6.04213,0.8486 8.74888,1.74152c6.10281,2.01354 12.06067,4.58056 17.88371,7.28511c1.30787,0.60758 4.93989,3.02781 6.25618,2.72393l0.01685,-0.17275c-1.52191,-2.1391 -2.79775,-4.35809 -4.29607,-6.47478c-1.15281,-1.39112 -2.63933,-2.5736 -3.8191,-3.9359c-1.30112,-1.50253 -2.4573,-3.12607 -3.8882,-4.52528c-11.47584,-11.23096 -26.23146,-22.70444 -42.10112,-26.33646c-1.65,-0.32022 -7.42753,-2.11955 -8.90056,-2.78865c-4.32472,-1.12298 -6.55112,-2.18983 -11.34758,-2.23736c0.17545,-0.25129 0.92528,-1.36112 1.10444,-1.4941c1.7336,-1.28815 1.96449,-0.38713 1.73697,-2.76657l-2.38888,1.16899c-0.06455,1.14506 0.03674,1.95135 -0.71022,2.79067c-0.9686,0.56444 -5.86652,-0.57961 -7.44185,-0.34264c-13.43831,2.02112 -26.9641,0.55702 -39.80815,5.85893c-2.20584,0.91062 -5.13674,3.65663 -7.06365,2.44382c-0.44528,0.56022 -1.19983,1.81348 -1.77539,2.13219c-2.82455,1.56455 -5.89062,2.51798 -8.60056,4.34208c-2.72022,1.83084 -5.51191,3.5941 -8.18444,5.49826c-7.84601,6.34079 -20.08399,16.67056 -25.12197,25.21399zM210.07079,163.4882c3.06404,-2.11551 6.22921,-3.71511 9.32865,-5.75343c7.04157,-4.6377 13.46292,-10.22629 19.81854,-15.74747c1.82191,-1.5814 3.08764,-3.66 4.70899,-5.28135c3.18876,-3.1864 5.95955,-6.86461 9.1264,-10.01343c-3.77022,-2.02669 -4.97865,-3.91483 -8.57191,-6.06371c-2.24494,-1.34242 -4.55225,-2.21663 -6.68258,-3.42404c-4.0382,-2.28775 -8.15225,-4.59118 -12.42472,-6.43096c-1.57753,-0.67955 -4.31629,-1.2541 -6.05899,-1.78888l-10.55899,-3.31938c-1.82697,-0.56006 -3.15337,-2.42022 -4.02135,-2.56331c-0.42303,0.33067 -0.8191,0.53562 -0.93708,1.0286c2.50112,4.9559 2.89382,6.55854 4.22022,11.80399c2.67978,10.59236 2.28371,22.26742 -1.07697,32.7123c-2.37472,7.38101 -9.72472,15.63438 -15.87978,20.31017c-3.38764,2.54663 -8.20112,3.89663 -10.53876,7.80506c2.93764,-1.78483 9.03371,-3.62865 12.48539,-4.88258c0.28146,0.13989 0.56629,0.2764 0.85449,0.40449c0.01517,-0.02865 0.32697,-0.64551 0.34045,-0.65056c5.47584,-2.45562 10.90112,-4.68674 15.86798,-8.14551zM152.69258,148.34798c-1.11826,0.52399 -2.04,1.22107 -3.06961,1.94747c-2.21275,1.56135 -4.20708,2.72258 -5.11601,5.41112c-1.91831,5.67371 -2.12697,11.10135 3.17191,14.99006c1.11607,0.8191 2.26416,1.71742 3.61466,2.1809c2.30545,0.79888 5.50635,0.06067 7.6741,-0.66236c6.16197,-2.08483 9.82449,-8.51056 7.86489,-14.9523c-1.66331,-5.46927 -4.98371,-6.56545 -9.65629,-9.0664c-0.65815,0.67247 -1.34022,1.4727 -2.16118,1.90129l-0.33539,-0.06725c-0.34736,-0.86393 -0.34551,-1.21399 -1.04208,-1.65371zM126.36,157.69702c7.0286,-1.14051 10.40242,-5.07455 11.10725,-12.2668c0.44831,-4.57517 -2.42275,-7.43747 -5.80129,-10.0077c-2.27376,-1.69028 -4.29539,-2.0523 -7.05051,-1.88022c-6.3536,0.83157 -11.51056,8.3432 -10.56219,14.64489c0.61652,4.09534 3.98579,7.15129 7.64848,8.66848c0.45657,-0.1264 0.48843,-0.16972 0.88146,-0.40955c1.61006,0.1082 1.11876,1.41539 3.00202,1.31124c0.25871,-0.01517 0.51691,-0.03522 0.77478,-0.06034zM173.61067,116.11112c1.57921,2.73573 4.02135,4.56303 6.56629,6.32006c-0.53258,0.24691 -0.54438,0.30809 -1.20169,0.13213c-0.42978,-0.50831 -2.93933,-2.14264 -3.85112,-3.0723c-0.80899,-0.82483 -1.38708,-1.99011 -2.06124,-2.20062c-0.5427,0.85348 -0.11798,1.40815 0.39438,2.16236c0.81067,1.19343 1.65506,2.91556 2.78764,3.79669c1.18146,0.35124 1.36348,-0.5459 2.82978,-0.16079c0.30843,0.23848 0.36742,0.27775 0.71124,0.45775c0.47528,0.81236 0.35393,1.42618 0.87135,1.78449c0.48539,-0.19298 0.53933,-0.31433 0.86966,-0.70955c0.9927,0.04601 1.25393,0.25146 2.17416,0.47376c0.63539,-0.16163 0.49045,-0.19753 1.01292,-0.82466c-0.57135,-0.26747 -1.82022,-0.29916 -2.44719,-0.1859l-0.49551,-0.74562c1.04831,-0.01264 2.26348,0.00152 3.29494,-0.06539c1.57753,-0.24539 3.4264,-0.99118 4.93989,-1.53438c1.03989,-0.37315 0.87472,0.28669 1.24213,0.06202c1.77135,-1.31713 3.52416,-4.60669 4.3264,-6.59292c2.6764,-6.18135 -2.92247,-12.98815 -8.48933,-14.88472c-5.39157,-1.83624 -12.48539,3.3177 -13.95843,8.50938c-0.76685,2.70843 -0.74157,4.82916 0.48371,7.2782zM182.27528,157.05826c4.24382,0.04938 5.04438,0.37163 8.45056,-2.79657c4.95,-4.60534 6.84101,-11.85 1.93483,-17.25843c-2.03596,-2.24562 -4.71067,-2.8714 -7.72247,-2.85169c-1.06348,0.01365 -2.12697,0.03573 -3.18876,0.06624c-3.11124,0.27826 -5.19101,2.02449 -7.16461,4.39685c-0.37247,0.45522 -0.72809,0.92427 -1.06685,1.40646c-0.37247,-0.12067 -0.24438,-0.05275 -0.53427,-0.31669c-0.69944,0.32562 -2.6882,4.53185 -0.9927,5.30056l0.33876,-0.0273l0.13652,-0.29191l-0.07584,-0.10331c-0.20899,-0.28382 -0.3236,-0.38292 -0.35562,-0.73399c0.35056,-0.51826 0.35899,-0.55635 0.88315,-0.86629l0.27472,0.09742c0.10618,1.17337 0.06573,2.55758 0.22079,3.69438c0.42135,3.08865 2.04101,6.93994 4.45449,9.00219c1.42416,1.2177 2.6764,1.25764 4.4073,1.28208zM122.09427,125.35854c0.91247,-0.15354 2.05416,-0.31517 2.93764,-0.51438c2.15798,-0.38865 3.09876,-0.66809 4.68775,-2.15882c4.78315,-4.48753 8.14281,-13.24028 2.00949,-18.10618c-2.8436,-2.2559 -6.08646,-2.94607 -9.59292,-2.71247c-6.36337,0.50764 -10.57045,5.78073 -10.16376,12.11882c0.14831,2.31236 2.24376,6.58601 3.97163,8.16657c1.28882,0.99573 4.5359,2.43522 6.15017,3.20646zM152.02551,111.34213l1.34579,-1.79916c0.37281,0.5341 0.97011,1.33584 1.27264,1.8814c1.33146,-1.43629 2.41955,-2.02146 3.50107,-3.65663c3.7023,-2.44365 5.34371,-4.25764 6.67146,-8.75966c0.05798,-0.19652 0.0573,-0.42624 0.06303,-0.63152c-1.96247,-1.57534 -8.27107,0.08022 -10.54584,-0.17056c-3.97753,-0.43854 -7.31815,-0.43534 -11.31185,-0.37803l-0.60539,0.10399c-0.49281,0.75371 0.19787,1.57888 0.45421,2.37219c1.18753,3.67601 4.18567,6.62056 7.96449,7.51399c0.59208,0.14006 1.32034,-0.25129 1.64309,0.41275c-0.95747,0.71444 -1.52798,-0.27624 -1.21753,1.26337c0.22011,1.09197 -0.00421,0.94904 0.76483,1.84787zM156.72,134.68888c0.15084,0.19112 0.43348,0.66101 0.65309,0.65528c1.14792,-0.02949 2.69831,-0.56798 3.08208,-1.72298c-0.15169,-0.4864 -0.22365,-0.55028 -0.49669,-0.97028c0.23764,-0.84826 0.64854,-1.65101 0.9214,-2.51124c1.03803,-3.27253 0.43871,-8.32247 -3.64129,-9.06152c-0.83006,-0.15034 -4.10242,-0.98815 -4.70073,-0.92258c-5.10792,3.1832 -7.37528,6.76938 -3.91921,12.39708c2.90124,4.72416 6.50124,0.54573 8.10135,2.13624zM50.86315,135.56882c1.33652,0.39809 3.08848,0.74107 4.31899,1.20691c1.00079,0.37888 3.05056,2.30258 4.0259,2.61843c0.53629,-0.95966 -1.08472,-4.40258 -1.49444,-5.62028c-1.70781,-5.07489 -0.80478,-10.14489 1.25326,-14.95416c-0.1136,-0.35309 -0.22888,-0.58281 -0.6364,-0.71107c-1.23017,1.11708 -2.33022,1.12315 -3.54236,2.06815c-0.67331,0.525 -1.08404,2.06596 -1.87483,2.54258l-0.23983,-0.13753l-0.24067,-1.0559l-0.25129,-0.1532c-8.4236,3.51758 -11.36039,9.85567 -1.31831,14.19607zM204.29494,139.61376c0.87472,-2.32281 0.99101,-5.77483 1.48146,-8.2677c1.11236,-5.66781 -0.63708,-11.36646 -1.66348,-16.90904c-0.02022,-0.1077 -0.18371,-0.30421 -0.26966,-0.3836c-0.13483,0.75135 -0.66067,3.63236 -0.58652,4.27635c0.57135,4.92657 0.32697,9.74393 0.43146,14.66478c0.03876,1.84146 -0.65562,5.64792 -0.46517,6.94938l0.25449,0.25449c0.55112,-0.09067 0.36236,-0.03758 0.81742,-0.58466zM117.28062,162.55045c-0.0091,1.50219 0.13652,1.54112 1.17792,2.67607c1.75112,1.90871 11.92871,8.72461 14.09073,8.70101c0.14006,-0.00337 0.27994,-0.00843 0.41966,-0.01517c-0.70567,-0.9118 -1.65118,-1.48315 -2.48663,-2.22978c-3.31045,-2.95955 -6.9182,-5.27191 -10.70646,-7.56455c-0.56225,-0.34028 -1.98506,-1.39652 -2.49522,-1.56758zM178.76292,53.94927c0.99607,0.45573 6.47697,2.60494 7.3264,2.64c1.03146,-0.5464 1.94663,-0.66219 3.07584,-0.84371c-1.31966,-0.43247 -4.38034,-1.63331 -5.49944,-1.89287c-3.35562,-0.77781 -4.21517,-0.60489 -7.47303,-2.00916c0.88315,0.96084 1.47472,1.43494 2.57022,2.10573zM163.88427,123.31449c0.78573,1.65624 1.13697,3.42657 1.55562,5.21815c0.11073,0.08528 0.22146,0.17056 0.33219,0.25601c0.1077,-2.00983 0.84067,-5.25742 -1.88781,-5.47416zM150.83511,137.66629c0.09624,-0.86039 0.24758,-1.01494 -0.06051,-1.75197c-0.82888,-0.72522 -2.03191,-0.84404 -3.13669,-0.92056c0.10365,0.73298 0.13972,0.73854 0.88298,1.28697c0.6182,0.45573 1.61326,1.24197 2.31421,1.38556zM161.29955,136.18382c-0.94163,0.41191 -2.11618,1.26219 -2.15865,2.38399l0.21388,0.26646c0.30674,0.0209 0.40281,0.06152 0.68781,-0.00472c0.69404,-0.62309 1.81129,-1.5241 2.24494,-2.28371l-0.06388,-0.30843c-0.45051,-0.10011 -0.45742,-0.08444 -0.9241,-0.0536zM159.50124,48.62781c0.75506,-0.14461 0.85129,-0.03354 1.33129,-0.46551l-0.01281,-0.33371c-0.62292,-0.57657 -1.10933,-0.62781 -1.95843,-0.63388c-0.63438,0.48539 -1.09854,0.75371 -1.05607,1.62607c0.61011,0.6123 1.00062,0.20376 1.69601,-0.19298zM40.67242,132.61787c0.85803,0.37534 1.55309,0.78371 2.46843,0.76112c-0.25028,-1.78129 -1.43511,-0.68107 -1.83961,-2.37573c-0.14949,-0.62629 -0.27624,-1.08202 -0.75421,-1.50084c-0.13837,1.31208 -0.13348,1.77775 0.12539,3.11545zM141.43348,123.13163c-0.35292,-0.5759 -1.00989,-1.88528 -0.30354,-2.38348c0.68242,0.25618 0.63624,0.36388 1.23725,0.24725c0.31618,-0.38646 0.33202,-0.35242 0.38326,-0.84067c-0.36556,-0.21017 -0.64281,-0.16989 -1.06736,-0.17747c-1.1368,0.47309 -2.09966,1.58663 -1.60955,2.86652c0.39101,0.39152 0.36539,0.41124 0.93152,0.52483c0.26107,-0.10096 0.27101,-0.0573 0.42843,-0.23697zM103.27382,123.95022c0.73247,-3.31702 1.2086,-6.83949 2.04876,-10.17236c0.24826,-0.98427 1.09399,-1.98994 0.88483,-2.65096l-0.26275,-0.03135c-1.68084,1.35742 -3.00118,6.74899 -3.29478,8.91219c-0.18978,1.39837 -0.13433,3.15691 -0.50764,4.54062l0.18556,0.51758c0.27893,0.67551 0.20562,3.95848 0.20579,4.81163c-0.1141,1.77978 0.46348,5.61152 0.83882,7.43933c0.41073,-0.01365 0.43096,-0.19096 0.82635,-0.58534c0.08798,-2.59685 -0.40888,-7.89758 -0.97483,-10.49309c0.00421,-0.76298 0.02073,-1.52579 0.04989,-2.28826zM181.90449,178.12247c-2.10506,1.51517 -4.22528,1.7764 -6.85618,3.75674c-0.34213,-0.12135 -0.48034,-0.18539 -0.80393,-0.34888c-0.41966,0.18708 -0.49213,0.37753 -0.74663,0.76011l0.01685,0.31348c0.67584,0.22753 1.08202,0.01517 1.68876,-0.34382c0.26798,0.00506 0.16348,-0.04213 0.33202,0.0927c2.93933,0.2882 6.6573,-2.31236 8.91404,-3.98427l-0.04719,-0.21236c-0.46011,-0.10112 -0.82247,0.14494 -1.27921,0.34888c-0.24607,-0.09101 -0.97584,-0.3691 -1.21854,-0.38258zM202.67865,169.18146c-0.58483,0.55281 -1.63315,1.88596 -0.78876,2.63427c0.37247,-0.69775 0.9,-1.51348 0.98764,-2.26685zM224.59551,156.33624c-1.72247,1.00601 -2.02079,2.25657 -0.21742,3.46197c0.31011,-1.92691 -0.49045,-1.64764 -0.40618,-2.53787c0.45506,-0.1682 0.65393,-0.22534 1.0736,-0.49096c-0.20393,-0.37837 -0.06067,-0.23697 -0.45,-0.43315zM155.12865,49.90904c0.97854,-0.63371 1.27584,-0.20831 1.99163,-0.61669l-0.22449,-0.36556l0.16264,0.39084l0.00876,-0.25837c-0.64129,-0.5336 -1.37343,-0.87135 -2.11685,-1.25478c-0.62494,0.47022 -0.50612,0.54927 -1.10545,0.52264l-0.14073,-0.09607c-0.35191,-0.23747 -0.5073,-0.39219 -0.92629,-0.44275c-0.86427,1.07427 -1.38691,1.88882 -2.47837,2.74062c1.67393,0.04045 3.2432,0.05933 4.82916,-0.61989zM163.04933,47.88152c0.53747,0.59528 2.18528,1.73933 3.02191,1.80202c-0.42556,-1.17118 -1.83725,-1.81163 -3.02191,-1.80202zM121.5868,84.41663c-1.99803,-0.55753 -5.65702,0.11612 -7.49309,1.1609c-0.30725,0.17242 -0.58871,0.38747 -0.83596,0.63843c2.04843,0.21758 4.37326,-1.11185 5.15831,-0.95376c1.33331,0.42742 2.30798,0.31449 3.17073,-0.84556zM137.04506,160.69904l-0.1318,0.4232c0.30994,0.56022 1.23978,0.96202 1.85646,1.52174c0.17393,-0.78034 0.28247,-1.16225 -0.12337,-1.80404c-0.55112,-0.34163 -0.9241,-0.21573 -1.60129,-0.1409zM144.67601,122.62938c-1.60989,1.5359 -2.66612,5.98719 -0.55298,7.61427c0.36202,-2.03191 0.1714,-4.62758 1.31258,-6.78236c0.11562,-0.21792 0.10753,-0.30539 0.08107,-0.53966c-0.35427,-0.28567 -0.37466,-0.24185 -0.84067,-0.29225zM193.00955,125.30225c-0.1382,0.73989 -0.2309,1.90213 0.01854,2.62163l0.23258,0.06438l0.18708,-0.14646c0.57135,-0.82719 1.10562,-1.48449 0.31011,-2.31708zM170.56348,98.45764c0.51067,1.28983 1.48652,1.2509 2.74719,1.17017c-0.20899,-1.51433 -1.38202,-1.17017 -2.74719,-1.17017zM150.98039,115.60264c-0.27438,-0.34382 -0.55618,-0.81472 -1.0441,-0.83006c-1.10275,0.58972 -2.94691,1.53101 -2.10202,3.11258c0.49803,0.16483 0.23612,0.14376 0.81185,-0.04618c0.87826,-0.7827 1.52899,-1.38354 2.33427,-2.23635zM103.14421,103.25225c-4.69854,3.03337 -11.28742,3.80242 -16.83219,5.34708c-4.45129,1.27567 -8.8709,2.65972 -13.25478,4.15096c-1.16882,0.38663 -5.63444,1.74927 -6.2668,2.42511c-1.65185,1.76596 -5.44972,7.06096 -5.86702,9.37567c-0.93742,5.1991 1.15787,10.15163 1.22393,15.5186c2.5591,2.27966 5.90562,4.09685 8.55303,6.38444c2.22978,1.92691 4.60955,3.73736 6.85466,5.65955c1.6018,1.37124 3.35916,3.36573 4.95354,4.59034c6.7264,5.16624 14.02584,9.5336 21.75624,12.97803c1.58191,0.68427 3.13972,1.36854 4.72955,2.09157c5.43691,2.47247 11.36966,4.08034 17.18612,5.39831c1.33871,0.30337 2.73573,1.36011 4.04326,1.01292l0.38579,-0.35056l-0.00657,-0.29831c-1.31157,-0.63371 -2.61624,-0.86966 -3.93084,-1.5927c-2.1809,-1.2118 -3.96944,-2.89382 -6.00556,-4.31966c-5.42444,-3.74225 -9.26242,-9.1082 -12.98713,-14.42444c-6.2673,-8.94506 -11.22607,-20.60562 -10.14219,-31.71809c0.64955,-6.65966 1.59253,-13.22309 5.06882,-18.92865c0.47427,-0.77848 1.46427,-2.33781 1.01006,-3.20022zM176.63596,165.83191c-0.82753,0.5673 -3.5073,2.95854 -3.72303,3.86697l0.23596,0.11966l0.54944,-0.26124c0.96404,-0.64551 3.87978,-2.33073 4.12247,-3.17562c-0.33202,-0.47528 -0.5882,-0.45101 -1.18483,-0.54978zM196.15955,124.70242c0.12472,0.21337 0.28146,0.47966 0.47022,0.79888c-0.02022,1.89287 -0.92697,6.76955 -0.11124,8.39933c0.38764,0.04685 0.39438,-0.00624 0.75674,-0.18404c0.05225,-0.69219 -0.10112,-0.90607 -0.07921,-1.11573c0.19551,-1.78972 0.57978,-5.93697 0.20899,-7.59826c-0.46854,-0.37652 -0.50225,-0.25045 -1.24551,-0.30017zM133.50438,134.15006c0.35545,1.08624 3.93978,5.77264 4.6736,6.21051c0.00961,-1.96753 -0.13433,-3.11174 -1.56556,-4.6923c-0.62326,-0.68831 -2.14466,-1.50169 -3.10803,-1.5182z" fill="#c6a65b"/><path d="M137.31236,46.00365c0.80899,-0.16028 8.48596,-0.85062 8.79758,-0.81101c0.31281,0.34652 0.23056,0.35006 0.35225,0.86242c-0.90742,0.27152 -5.37185,1.33079 -5.8891,0.99287l-0.07534,-0.68781c-0.72034,-0.68056 -1.81045,-0.20545 -3.18539,-0.35646z" fill="#cb9d40"/><path d="M197.33596,176.28539c0.02528,-0.45674 0.73146,-1.33315 1.05169,-1.67022l0.2073,0.07416c0.26124,0.54944 0.28989,0.70281 0.72978,1.09719c0.97753,-0.07921 0.90337,-0.12978 1.6618,0.48708c-1.04831,0.60169 -2.54326,0.36573 -3.65056,0.0118z" fill="#cb9d40"/><path d="M156.8914,168.01416c1.68236,-0.21472 3.38343,-0.17056 5.07067,-0.04365c-0.9214,0.38056 -1.72837,0.71208 -2.67371,1.02725c-3.58989,0.99438 -6.89511,1.57921 -10.21635,-0.3809c1.55747,-0.01685 2.9636,-0.04888 4.5177,-0.22753c1.10107,-0.1259 2.21039,-0.3718 3.30169,-0.37517z" fill="#cb9d40"/><path d="M156.8914,168.01416c1.68236,-0.21472 3.38343,-0.17056 5.07067,-0.04365c-0.9214,0.38056 -1.72837,0.71208 -2.67371,1.02725c-0.04517,-0.17022 -0.1586,-0.42303 -0.2282,-0.59494c-0.38494,-0.30135 -0.44646,-0.28331 -0.91433,-0.30978z" fill="#bd8e2e"/><path d="M115.92438,143.47837l0.35393,0.1136c0.33674,0.30017 5.39831,9.27135 5.84191,10.20826c-0.40702,-0.12219 -0.46365,-0.12404 -0.7886,-0.40197c-3.46989,-2.96663 -5.01455,-5.2977 -5.40725,-9.91989z" fill="#c6a65b"/><path d="M189.70618,106.68354c0.33371,-0.44326 0.38596,-0.69152 0.80899,-0.82247c1.26573,0.99084 2.73371,6.75051 2.1573,8.51427l-0.23933,0.07112c-0.8073,-0.80444 -2.34775,-5.85051 -3.11966,-7.5718z" fill="#cb9d40"/><path d="M189.31348,106.87466c-0.63539,-0.69388 -2.03933,-1.98944 -1.77809,-2.91961c0.5309,-0.21624 0.25618,-0.16803 0.86461,-0.09472c0.81742,0.83713 0.84438,1.86539 1.30618,2.8232z" fill="#bd8e2e"/><path d="M191.22135,147.43837l0.18539,0.28787c-0.31685,1.60011 -2.16404,3.06607 -3.06236,5.05298c-0.76685,0.51522 -1.14438,0.79601 -2.01573,1.15146l-0.19045,-0.26444l0.06236,-0.3123c1.7882,-1.89219 3.26292,-4.17792 5.02079,-5.91556z" fill="#cb9d40"/><path d="M119.47331,103.92961c0.57489,0.00152 0.67736,0.15893 0.98831,0.57219c0.07028,0.9091 -1.59202,3.13871 -2.2018,4.14742c-1.58781,2.62669 -2.02685,5.14854 -3.14478,7.73258l-0.04938,0.19197l-0.25365,0.07618c-0.30927,-0.64669 -0.20781,-1.41303 -0.24253,-2.11921c-0.21421,-4.36298 1.95556,-7.73579 4.90382,-10.60112z" fill="#c6a65b"/><path d="M153.01129,107.93225c0.78944,-0.04315 2.06208,-0.18253 2.73725,0.09354l0.07011,0.35663c-0.87388,0.14039 -1.90635,0.40551 -2.68298,-0.00455z" fill="#bd8e2e"/><path d="M139.08101,91.2814c1.98101,-0.29798 12.11494,-0.42556 14.24646,-0.20242c-0.16972,0.08865 -2.31067,1.11826 -2.22809,1.11169c-1.49107,0.12034 -3.08933,-0.1864 -4.59152,-0.19112c-1.67258,0.01837 -4.34579,0.93742 -5.99966,0.61079c-0.17056,-0.03371 -0.66725,-0.85871 -0.79281,-1.05809z" fill="#cb9d40"/><path d="M196.15955,124.70242c0.74326,0.04972 0.77697,-0.07635 1.24551,0.30017c0.37079,1.66129 -0.01348,5.80854 -0.20899,7.59826c-0.02191,0.20966 0.13146,0.42354 0.07921,1.11573c-0.36236,0.17781 -0.3691,0.2309 -0.75674,0.18404c-0.81573,-1.62978 0.09101,-6.50646 0.11124,-8.39933c-0.18876,-0.31921 -0.34551,-0.58551 -0.47022,-0.79888z" fill-opacity="0.01569" fill="#000000"/><path d="M178.76292,53.94927c0.99607,0.45573 6.47697,2.60494 7.3264,2.64l0.34382,1.02742c-1.65,-0.32022 -7.42753,-2.11955 -8.90056,-2.78865c0.47022,-0.63084 -0.02191,0.06893 0.99944,-0.21674z" fill="#cb9d40"/><path d="M173.61067,116.11112c1.57921,2.73573 4.02135,4.56303 6.56629,6.32006c-0.53258,0.24691 -0.54438,0.30809 -1.20169,0.13213c-0.42978,-0.50831 -2.93933,-2.14264 -3.85112,-3.0723c-0.80899,-0.82483 -1.38708,-1.99011 -2.06124,-2.20062c0.35899,-0.30034 0.3691,-0.64871 0.54775,-1.17927z" fill="#cb9d40"/><path d="M176.63596,165.83191c0.59663,0.09876 0.85281,0.07449 1.18483,0.54978c-0.2427,0.84489 -3.15843,2.53011 -4.12247,3.17562l-0.54944,0.26124l-0.23596,-0.11966c0.21573,-0.90843 2.89551,-3.29966 3.72303,-3.86697z" fill-opacity="0.01176" fill="#000000"/><path d="M113.25775,86.21596c2.04843,0.21758 4.37326,-1.11185 5.15831,-0.95376c0.12725,0.36101 0.18809,0.53258 0.42354,0.83376l-0.32393,0.4291c-2.02989,0.47511 -3.70112,0.59326 -5.78444,0.68596c0.05393,-0.50899 0.19635,-0.60472 0.52652,-0.99506z" fill="#cb9d40"/><path d="M180.17697,122.43118c0.74663,0.38073 1.01124,0.15691 1.59438,0.90775l0.49551,0.74562c-0.28989,0.24978 -0.41629,0.32966 -0.73989,0.5368c-0.33034,0.39522 -0.38427,0.51657 -0.86966,0.70955c-0.51742,-0.35831 -0.39607,-0.97213 -0.87135,-1.78449c-0.34382,-0.18 -0.40281,-0.21927 -0.71124,-0.45775l-0.09944,-0.52534c0.6573,0.17596 0.6691,0.11478 1.20169,-0.13213z" fill="url(#color-1)"/><path d="M163.88427,123.31449c2.72848,0.21674 1.99551,3.46433 1.88781,5.47416c-0.11073,-0.08545 -0.22146,-0.17073 -0.33219,-0.25601c-0.41865,-1.79157 -0.76989,-3.56191 -1.55562,-5.21815z" fill-opacity="0.04314" fill="#000000"/><path d="M40.54702,129.50242c0.47798,0.41882 0.60472,0.87455 0.75421,1.50084c0.40449,1.69466 1.58933,0.59444 1.83961,2.37573c-0.91534,0.02258 -1.61039,-0.38579 -2.46843,-0.76112c-0.25888,-1.3377 -0.26376,-1.80337 -0.12539,-3.11545z" fill-opacity="0.01569" fill="#000000"/><path d="M141.68309,119.97725c0.42455,0.00758 0.7018,-0.0327 1.06736,0.17747c-0.05124,0.48826 -0.06708,0.45421 -0.38326,0.84067c-0.60101,0.11663 -0.55483,0.00893 -1.23725,-0.24725c-0.70635,0.4982 -0.04938,1.80758 0.30354,2.38348c-0.15742,0.17966 -0.16736,0.13601 -0.42843,0.23697c-0.56612,-0.1136 -0.54051,-0.13331 -0.93152,-0.52483c-0.49011,-1.27989 0.47275,-2.39343 1.60955,-2.86652z" fill-opacity="0.01176" fill="#000000"/><path d="M121.5868,84.41663l0.08949,0.68511c0.90202,0.02225 0.1773,-0.4886 1.67579,-0.43129c-1.35742,1.11843 -3.11258,1.61427 -4.8364,1.85461l0.32393,-0.4291c-0.23545,-0.30118 -0.29629,-0.47275 -0.42354,-0.83376c1.33331,0.42742 2.30798,0.31449 3.17073,-0.84556z" fill="#bd8e2e"/><path d="M170.56348,98.45764c1.36517,0 2.5382,-0.34416 2.74719,1.17017c-1.26067,0.08073 -2.23652,0.11966 -2.74719,-1.17017z" fill-opacity="0.04314" fill="#000000"/><path d="M102.32781,125.06596c0.54927,-0.31618 0.14933,-0.5523 0.94601,-1.11573c-0.02916,0.76247 -0.04567,1.52528 -0.04989,2.28826l-0.30657,-0.04989c-0.285,1.3286 0.05629,2.08146 -0.38376,3.68899c-0.00017,-0.85315 0.07315,-4.13612 -0.20579,-4.81163z" fill-opacity="0.05882" fill="#000000"/><path d="M182.26685,124.08455c0.62697,-0.11326 1.87584,-0.08157 2.44719,0.1859c-0.52247,0.62713 -0.37753,0.66303 -1.01292,0.82466c-0.92022,-0.2223 -1.18146,-0.42775 -2.17416,-0.47376c0.3236,-0.20713 0.45,-0.28702 0.73989,-0.5368z" fill-opacity="0.02745" fill="#000000"/><path d="M181.77135,123.33893c1.04831,-0.01264 2.26348,0.00152 3.29494,-0.06539c-0.07584,0.26006 -0.19551,0.83882 -0.35225,0.99691c-0.57135,-0.26747 -1.82022,-0.29916 -2.44719,-0.1859z" fill="#bd8e2e"/><path d="M163.04933,47.88152c1.18466,-0.00961 2.59635,0.63084 3.02191,1.80202c-0.83663,-0.0627 -2.48444,-1.20674 -3.02191,-1.80202z" fill-opacity="0.04706" fill="#000000"/><path d="M202.67865,169.18146l0.19888,0.36742c-0.08764,0.75337 -0.61517,1.5691 -0.98764,2.26685c-0.84438,-0.74831 0.20393,-2.08146 0.78876,-2.63427z" fill-opacity="0.03922" fill="#000000"/><path d="M86.34455,176.41854c0.78758,0.0573 0.95174,0.0236 1.38961,0.69775c0.1982,2.00393 -2.58371,6.75337 -3.53865,9.00843c-4.32,10.20169 -8.68618,20.59382 -14.17433,30.23596c-0.18725,0.32865 -0.2373,0.24438 -0.31517,0.66067c0.87118,0.35225 3.12809,-3.52416 3.8673,-4.29438c6.81236,-7.14775 10.85612,-15.96067 18.99253,-21.78371c4.41657,-3.16011 5.66764,-5.01404 11.04421,-7.01461c-0.66084,2.01404 -1.65303,3.23933 -2.60966,5.10337c-1.05051,2.04607 -1.85528,4.13933 -3.18236,6.04551c-1.00382,1.4427 -3.10449,3.45506 -3.90067,4.8691c0.13989,0.71629 0.37652,0.70787 1.06247,1.29944c0.23006,0.54607 0.19163,0.70281 0.19517,1.31292c-0.46247,0.5764 -0.65646,-0.34888 -1.67039,0.07921c-0.99084,1.54382 0.55483,1.76124 0.30253,3.34888c-0.37618,0.5073 -0.13938,0.3809 -0.68208,0.47697c-1.13697,-0.44157 -1.60163,-1.70225 -2.47921,-2.57697c-1.91343,1.5118 -3.61112,3.9 -5.26652,5.68315c-1.59691,1.72079 -3.36876,3.3809 -5.05584,5.02416c-2.28455,2.12528 -4.24365,4.58764 -6.38393,6.83427c-2.20365,2.31404 -4.65978,4.26742 -6.65225,6.80225c-1.11,1.50169 -2.78747,3.07921 -3.81522,4.60281c-2.27663,3.37584 -4.1614,6.50225 -7.1282,9.3691c-0.82719,0.79888 -1.94596,2.3882 -2.72191,3.35225c-0.41191,-0.41292 -0.65225,-0.77697 -1.20556,-0.83596c-1.86792,0.99101 -5.22101,7.07191 -7.15096,7.1427l-0.0536,-0.30506c0.37264,-0.96742 3.88011,-6.23427 4.80303,-7.04326c-0.35562,-0.6573 -0.64652,-1.27247 -0.96354,-1.94494c0.49315,-1.41573 1.07461,-2.23315 1.81803,-3.50899c1.22764,-2.10506 2.49994,-4.21685 3.6514,-6.36404c0.77107,-1.43764 1.31309,-3.08596 2.0673,-4.53708c4.05657,-7.0382 7.11169,-14.56011 11.10253,-21.61517c1.96702,-3.6118 4.1877,-7.07865 6.24725,-10.63315c1.25427,-2.16404 2.20803,-4.62978 3.39792,-6.8427c1.78803,-3.32191 3.89916,-6.52584 6.23494,-9.48708c0.78,-0.98933 1.8177,-2.37472 2.77382,-3.1618zM67.32388,212.78596c0.86056,-0.49213 1.57938,-1.10056 1.93702,-2.05955l-0.03034,-0.32191c-0.20831,-0.07416 -0.32781,-0.13483 -0.54371,-0.16685l-1.6564,2.38315l0.05006,0.22416z" fill="#c6a65b"/><path d="M68.68685,210.23764c0.2159,0.03202 0.33539,0.0927 0.54371,0.16685l0.03034,0.32191c-0.35764,0.95899 -1.07646,1.56742 -1.93702,2.05955l-0.24337,0.05899l-0.05006,-0.22416z" fill-opacity="0.05882" fill="#000000"/><path d="M163.11607,195.3118c0.08781,0.03708 0.1773,0.07079 0.26326,0.11292c0.49635,0.23596 0.96826,0.77865 1.09685,1.31461c0.34854,1.45449 -0.43382,3.27135 -0.52096,4.76966c-0.15657,2.68989 0.08292,5.42022 -0.14831,8.10337c-0.36792,4.2691 -1.1336,8.51292 -1.65893,12.76517c-0.22534,1.8236 -0.24421,3.66742 -0.46382,5.4927c-0.23242,1.93146 -0.6964,3.83427 -0.94618,5.76404c-0.16837,1.30112 -0.78152,8.67135 -0.49045,9.61517c0.2909,0.94213 -0.16213,1.16629 -0.19062,2.03258c-0.04146,1.26236 0.5582,2.47584 0.45034,3.81404c-0.13955,1.73258 -0.8882,3.39438 -1.13006,5.11348c-0.27944,1.98708 -0.1982,4.05169 -0.39287,6.05562c-0.22433,2.30899 -0.65124,4.59944 -0.91096,6.90506c-0.20275,1.8 -0.22197,3.63034 -0.33202,5.43876c-0.08764,1.44101 -0.99994,3.14831 -1.03045,4.20337c-0.00404,0.14326 0.24691,0.59157 0.31213,0.74831c-0.1377,0.81742 -0.1982,1.45281 -0.84,1.95506l-0.68933,-0.09438c-0.82888,0.71461 -0.16753,3.30169 -0.60455,4.84382l-0.18067,0.04551c-0.91416,-1.56573 -0.99152,-5.47247 -1.44708,-7.36685c-1.0377,-4.31292 -1.6136,-8.96124 -2.10876,-13.38876c-0.30826,-2.90562 -0.54253,-5.81798 -0.70281,-8.73539c-0.3177,-5.24326 -0.615,-8.09157 -2.72343,-13.10899c-2.26753,-7.02809 0.03438,-12.13315 -0.19753,-19.09213c-0.22382,-6.71124 -2.65871,-13.12584 -1.92708,-20.00899c0.10635,-1.00112 -0.36876,-4.41236 0.44022,-4.91798c0.76213,0.63708 1.18584,2.58876 1.5482,3.54775c3.04652,8.06966 3.41764,16.5927 4.67444,24.97921l2.55876,16.13933c0.50899,-3.39438 0.60253,-7.35674 1.06483,-10.78146c0.8159,-5.4809 1.33669,-10.60618 2.17079,-16.11404c0.88197,-5.82472 0.99607,-12.43989 2.91236,-18.04213c0.17865,-0.52247 1.6559,-1.74101 2.14466,-2.10843z" fill="#c6a65b"/><path d="M222.07247,173.78596c1.6382,0.3927 5.25506,3.59663 6.15337,5.07303c2.06629,3.39944 3.57809,7.24719 5.28539,10.84213c1.28764,2.71517 2.95955,5.20281 4.12079,7.98539c2.63258,5.54157 5.95618,10.1427 9.12472,15.42978c4.80169,8.01067 9.42135,16.34157 13.55056,24.72472c0.26461,0.53427 -0.54607,1.8118 -0.85955,2.30899c2.08483,1.93146 2.97135,3.86292 3.94213,6.48876c-2.66629,-2.02584 -3.21404,-3.50056 -5.44382,-5.82472c-1.09719,-1.15112 -3.39101,-1.82697 -4.40562,-2.91067c-3.21067,-3.4264 -6.63371,-6.64888 -9.81404,-10.10056c-1.66685,-1.81011 -3.12809,-4.14775 -4.80337,-5.88876c-2.5618,-2.65955 -4.85393,-5.12528 -7.20674,-7.96685c-3.52247,-4.77135 -22.81685,-25.02135 -23.34775,-28.87753c-0.0573,-0.41124 -0.04045,-0.46517 0.19551,-0.77697c1.60281,-0.11292 5.8618,5.07809 7.46966,6.10955c0.3809,0.2427 2.6427,2.23989 2.94101,2.61573c3.04045,3.8309 6.37247,7.14101 10.11742,10.27753c1.08876,0.91517 2.13708,2.55674 3.24438,3.56629c1.39551,1.27753 2.89213,2.44719 4.28427,3.72809c1.61461,1.47303 3.26292,3.59157 5.0427,4.82022l0.16517,0.11124c-1.19157,-2.91067 -3.49719,-5.74382 -5.10337,-8.58539c-2.20618,-3.90506 -3.96573,-7.69382 -6.04551,-11.72865c-2.93596,-5.69326 -7.00618,-11.39157 -8.82135,-17.56348c-0.30506,-1.03652 0.18371,-2.1691 0.19213,-3.1264c0.00337,-0.35393 -0.04719,-0.21067 0.02191,-0.73146zM243.59494,218.96629l0.79382,0.83933c0.78708,-0.83764 1.2118,-1.57753 2.42191,-1.38708c-0.27472,0.5191 -0.63539,1.02809 -0.52247,1.55393l-0.08258,-0.09607l-0.00169,0.30337c0.68933,-0.42303 0.68764,-0.77022 1.13933,-1.06517c0.48708,-0.31685 0.59157,-0.28146 0.66404,-0.83258c-0.66236,-0.8764 -1.83034,-0.44326 -3.53764,-2.62753l-0.11629,-0.15l0.00843,0.26798l0.08933,-0.0691c-0.41292,1.65337 0.11124,1.25899 -0.85618,3.26292zM240.70449,221.02584c1.23708,0.09944 1.53708,0.08933 2.61742,0.77022l0.2882,0.04719c0.06236,-0.4264 -1.21348,-2.23989 -1.51854,-2.7118l-0.25281,-0.12472c-0.41629,0.87978 -0.57303,1.2118 -1.13427,2.0191zM244.50169,213.78034c0.40112,-1.31124 -0.3691,-1.87416 -1.59607,-2.1691c-0.29831,1.24045 0.35562,2.01742 1.59607,2.1691z" fill="#c6a65b"/><path d="M241.83876,219.00674l0.25281,0.12472c0.30506,0.47191 1.5809,2.28539 1.51854,2.7118l-0.2882,-0.04719c-1.08034,-0.6809 -1.38034,-0.67079 -2.61742,-0.77022c0.56124,-0.8073 0.71798,-1.13933 1.13427,-2.0191z" fill-opacity="0.01961" fill="#000000"/><path d="M246.81067,218.41854c0.18034,0.43652 0.14157,0.45169 0.53258,0.69607c-0.45169,0.29494 -0.45,0.64213 -1.13933,1.06517l0.00169,-0.30337l0.08258,0.09607c-0.11292,-0.52584 0.24775,-1.03483 0.52247,-1.55393z" fill-opacity="0.14118" fill="#000000"/><path d="M194.35281,187.98708l0.31011,0.0927c1.52865,1.79494 1.93483,5.41011 2.52978,7.7191c1.47978,5.72865 2.90899,11.46573 3.62191,17.34944c0.33876,2.7809 0.53933,5.6309 1.04157,8.38483l4.58427,23.79944l-0.91517,1.76966l1.69382,1.34494c-0.96573,0.73146 -1.45449,1.17472 -2.32416,2.02584c-1.45112,-2.25 -3.58315,-3.32528 -5.16067,-5.66124c-1.97191,-2.96461 -3.72135,-6.07247 -5.23483,-9.29494c-1.99719,-4.16124 -3.19213,-6.63202 -5.89551,-10.51854c-1.99045,-2.86011 -5.03596,-8.25674 -6.37247,-11.41011c-0.43989,-0.9573 -1.46461,-2.80955 -1.52191,-3.77191l0.19382,-0.1264c0.56124,0.60337 1.06011,1.13258 1.65506,1.70562l0.09101,-0.09438c-0.84438,-1.9736 -1.70562,-3.94045 -2.58202,-5.90056c-1.77978,-3.9118 -2.61404,-4.82697 -3.20393,-9.10787c0.25955,-0.67247 0.65056,-1.28258 1.01461,-1.90787c3.34213,4.26404 6.27135,10.93483 9.5764,15.39944c1.37528,1.85899 9.34888,19.08876 9.97416,19.3736c0.20393,-0.49213 0.14663,-0.6927 0.01685,-1.27247c-0.75506,-3.35225 -1.97528,-6.63539 -2.88708,-9.9236c-0.7618,-2.75562 -1.23202,-5.97135 -1.88764,-8.77921c-0.61517,-2.75562 -0.56461,-5.52978 -0.77191,-8.34607c-0.18876,-2.54494 -0.91854,-5.74551 -0.2427,-8.23652c0.36404,-1.35 1.88764,-3.40281 2.69663,-4.61292zM198.79551,212.36124c0.27135,-1.07528 -0.88315,-2.84663 -1.80674,-3.38258c-0.1264,0.86798 0.57472,2.45899 0.97584,3.25281c0.3573,0.19213 0.41124,0.14326 0.8309,0.12978z" fill="#c6a65b"/><path d="M32.09376,191.93596c1.08152,-2.37303 7.30365,-9.58315 9.16365,-11.78933l0.2968,-0.10618c0.38882,0.34213 0.31989,0.38933 0.76483,0.47865l0.15236,-0.24101c-0.18253,-0.40955 -0.72236,-1.04326 -0.4264,-1.39888c1.59539,-1.92135 3.09135,-3.9 4.57669,-5.90562c0.13567,-0.18371 0.60506,-0.24101 0.82281,-0.26461c4.23742,-5.52742 8.19624,-11.94472 13.65303,-16.32876c-0.63994,1.35202 -1.43882,2.64438 -2.02551,3.90051c0.70803,-0.70315 2.82893,-2.9882 3.58146,-3.2373c0.67315,0.1114 0.38663,-0.02663 0.89326,0.42388c0.82567,2.21157 -4.66652,7.16511 -4.84736,8.66343c0.22719,0.34416 0.25517,0.38208 0.54573,0.67348c-0.46348,0.57438 -1.7732,1.06449 -2.07337,1.55781c-2.26618,3.72337 -5.95517,7.69247 -8.12444,11.33292c2.9668,-1.59775 22.17994,-14.54208 23.84022,-12.17275c0.80629,5.6823 -12.36522,11.7514 -16.6232,14.24579c-7.45315,4.36517 -14.66713,10.06011 -22.10343,14.23483c-1.0677,0.54438 -2.19421,1.11067 -3.37449,0.78708c-1.24955,-1.14607 0.45135,-3.8073 1.30736,-4.85393zM33.4259,194.8618l-0.16466,-0.22921c-0.35292,-0.49719 -0.37011,-0.94045 -0.91247,-1.22022l-0.27792,0.15c-0.25989,0.9118 -0.12118,1.4882 0.75556,1.93483c0.46264,-0.0118 0.47225,0.03371 0.83124,-0.23596z" fill="#c6a65b"/><path d="M33.65764,195.26124c-0.35899,0.26966 -0.3686,0.22416 -0.83124,0.23596c-0.87674,-0.44663 -1.01545,-1.02303 -0.75556,-1.93483l0.27792,-0.15c0.54236,0.27978 0.55955,0.72303 0.91247,1.22022l0.16466,0.22921z" fill-opacity="0.00784" fill="#000000"/><path d="M34.1609,196.00281c-1.0677,0.54438 -2.19421,1.11067 -3.37449,0.78708c-1.24955,-1.14607 0.45135,-3.8073 1.30736,-4.85393l-0.00607,0.27135c-0.00708,0.26292 -0.00674,0.34382 -0.0723,0.60674c0.26511,0.38258 0.08949,0.26629 0.53966,0.36742c0.63607,-0.27978 0.81219,-0.48202 1.42416,-0.39607l0.25567,0.31011c-0.67517,0.92865 -1.17944,0.23427 -0.80899,1.76629l-0.16466,-0.22921c-0.35292,-0.49719 -0.37011,-0.94045 -0.91247,-1.22022l-0.27792,0.15c-0.25989,0.9118 -0.12118,1.4882 0.75556,1.93483c0.46264,-0.0118 0.47225,0.03371 0.83124,-0.23596z" fill="#cb9d40"/><path d="M98.17921,267.27135c0.42843,-2.60393 1.64427,-5.5382 2.09242,-8.15562c0.1623,-0.94719 -0.77865,-3.07753 -0.52955,-4.20506c0.2464,-1.11404 1.19208,-1.17809 1.30736,-2.15899c-0.11478,-0.21404 -0.22466,-0.43146 -0.32949,-0.65056c-0.18522,-0.3927 -0.36017,-0.83764 -0.28365,-1.27416c0.4714,-2.68989 1.22376,-5.50112 1.64124,-8.18258l2.03949,-13.00787c0.31567,-1.94326 0.49247,-4.02303 1.01258,-5.91067c1.98169,-7.1882 4.96567,-13.8809 6.14258,-21.3c0.41022,-2.58371 1.80017,-11.17247 4.34124,-12.34045c0.43601,0.22416 0.48388,0.32697 0.69742,0.79382c2.19219,4.78989 0.02798,9.3809 -0.73669,14.2264c-1.12517,7.1309 -0.93708,13.65169 -3.64803,20.51966c-0.50545,0.37921 -0.55652,0.43652 -0.86562,0.98764c-0.10416,-0.3691 -0.10449,-0.52247 -0.41124,-0.76685c-1.04815,0.18539 -0.89478,1.01966 -2.0577,1.25899l-0.00522,-0.31011c0.33843,-0.36573 0.48539,-0.46517 0.61449,-0.95225c-0.21354,-0.6573 -0.25534,-0.52921 -0.85989,-1.06685c0.36624,-1.01292 0.55483,-0.61854 1.42669,-1.46629c0.20275,-0.58989 0.15573,-0.66236 0.04635,-1.30112l-0.19045,-0.00337c-0.58281,0.9236 -0.96624,1.3382 -1.69972,2.15899c-0.72809,1.07697 -1.30921,1.86404 -2.12292,2.87865c1.52579,2.98146 1.45315,5.59382 0.46298,8.71685c-0.33472,0.23933 -0.36051,0.21236 -0.77056,0.30337c-0.60388,1.01629 0.27084,2.73708 0.15051,3.76348c-0.02292,0.19382 -0.60742,1.24213 -0.74107,1.48146l2.84697,0.00843c0.07416,-0.91517 0.22517,-1.57921 0.58989,-2.47921c-0.04601,-0.05562 -0.09202,-0.11124 -0.13803,-0.16685c-0.42101,-0.56292 -0.80006,-0.48708 -1.01713,-1.10899l0.25652,-0.27978l0.81522,-0.02191l0.26006,-0.31517c0.11157,-0.53764 0.11848,-0.5191 0.38444,-0.96404l0.31719,-0.04551l0.61584,-0.19719c0.82719,0.14831 1.48517,0.20225 2.21865,0.60674c1.01191,0.84944 0.88298,1.99045 1.14135,3.18034c0.23191,0.97921 -0.44579,2.32079 -0.91938,3.2073c-2.01961,3.77697 -3.3209,7.68876 -4.81281,11.67135c-0.44225,1.18146 -1.44775,3.14663 -2.23837,4.11067c-1.22343,1.49326 -3.32242,2.40674 -4.6286,3.81742c-1.1523,1.54888 -1.04646,2.95449 -2.41534,4.93989zM104.95045,234.5073c0.705,-0.84101 1.02522,-1.17472 0.97028,-2.25506c-0.18472,-0.26124 -0.14343,-0.25281 -0.38494,-0.44494c-0.38545,0.78202 -0.82753,1.5236 -0.95545,2.37303c0.19449,0.3 0.06607,0.19551 0.37011,0.32697zM103.98657,249.52247c0.41056,-0.63371 0.81758,-1.15618 1.01039,-1.87921l-0.06287,-0.27303c-0.69978,0.62528 -1.23893,1.13596 -0.94753,2.15225z" fill="#c6a65b"/><path d="M105.53579,231.8073c0.24152,0.19213 0.20022,0.18371 0.38494,0.44494c0.05494,1.08034 -0.26528,1.41404 -0.97028,2.25506c-0.30404,-0.13146 -0.17562,-0.02697 -0.37011,-0.32697c0.12792,-0.84944 0.57,-1.59101 0.95545,-2.37303z" fill-opacity="0.02353" fill="#000000"/><path d="M104.9341,247.37022l0.06287,0.27303c-0.19281,0.72303 -0.59983,1.24551 -1.01039,1.87921c-0.2914,-1.01629 0.24775,-1.52697 0.94753,-2.15225z" fill-opacity="0.12157" fill="#000000"/><path d="M256.97022,160.31596c0.79888,0.4168 5.00056,5.93124 5.50618,6.9927c3.49382,7.33348 9.7264,12.64753 14.43708,19.17506c1.06854,1.47809 2.61404,2.72528 3.64888,4.33652c1.2,1.8691 -0.2309,2.28371 0.32022,4.10562c0.20899,0.61348 0.29326,0.91685 0.45843,1.55562c-3.26798,-1.81854 -6.25955,-3.88483 -9.59663,-5.66629c-5.40506,-2.88708 -11.40506,-4.75787 -16.69382,-7.80843c-1.28764,-0.74157 -2.90225,-2.83652 -4.12079,-3.84101c-0.28315,-0.23258 -0.24944,-0.52753 -0.2309,-0.84101c0.26124,-0.27809 0.37416,-0.36404 0.55449,-0.70281l-0.23764,-0.11461c-0.19888,0.18708 -0.38258,0.33539 -0.59326,0.51067c-2.44551,0.07753 -10.56067,-4.92303 -12.1264,-7.01966c-0.47697,-0.63876 -1.95337,-1.47809 -1.50337,-2.35449c0.9,-0.16837 2.53315,0.56966 3.11461,1.25562c0.41461,0.48708 0.06236,1.31292 1.10899,1.27247l0.15674,-0.27809c-0.2309,-0.33539 -0.3691,-0.54607 -0.57303,-0.90674l0.16348,-0.19213c4.39382,0.14494 9.37584,4.11573 12.99438,6.20225c0.32022,0.18539 1.03652,-0.34382 1.38371,-0.50899c2.07303,1.0736 10.08202,7.09888 11.72697,6.44157c-0.00337,-0.00674 -7.41236,-9.49045 -7.67865,-9.7618c-1.81011,-1.84045 -3.75843,-3.15 -5.40506,-5.2168c4.17135,-1.71051 1.8809,-2.14433 2.69494,-5.15831c0.09944,-0.36775 0.37416,-1.01612 0.49045,-1.47691z" fill="#c6a65b"/><path d="M133.09281,193.61292c-0.73011,2.29719 -1.32893,4.54719 -2.00848,6.84775c-0.30118,1.52191 -1.76629,4.27921 -1.94309,5.73034c-0.60775,4.99382 -2.59618,8.65449 -4.80506,13.03315c-0.49955,0.99101 -1.41843,2.93933 -1.78348,4.00112c-1.21989,3.55449 -2.65753,6.14157 -4.77101,9.21236c-0.36506,0.22247 -0.84961,0.54438 -1.22933,0.6927c-0.51067,-1.75449 -0.66539,-3.27135 -0.73399,-5.09157c0.0123,0.32697 -0.44157,-0.54101 -0.4591,-0.5882c0.31584,-0.42135 0.35579,-0.5073 0.58517,-0.9573c-0.02022,-1.13427 -0.04669,-0.53933 -0.59258,-1.67865c0.27303,-2.36292 12.73264,-25.25899 14.95871,-28.41404c0.645,-0.91517 1.87837,-2.00056 2.78225,-2.78764z" fill="#c6a65b"/><path d="M246.40281,152.9464c0.75337,0.11933 1.11404,0.4859 1.81348,0.76551c2.28371,0.92629 4.79326,1.65927 7.01798,2.69596c1.02472,0.47815 -0.49719,2.89938 -0.80562,3.42607c-0.4382,0.75135 0.09944,0.33 0.41966,1.08421l-0.19213,0.10803c-0.70955,-0.00624 -3.42303,-1.29657 -4.11236,-1.76865c-0.52416,-0.46955 -0.44326,-0.56191 -0.99101,-0.60303l-0.13652,0.34904c0.25281,0.71225 0.47697,0.60522 1.24382,1.17084c0.22584,0.73112 0.70955,2.32079 0.52584,3.03506l-0.25449,-0.09303c-0.34045,-0.39927 -0.75169,-1.07511 -0.82079,-1.57989c-0.1382,-1.00921 -1.6382,-1.69685 -1.99045,-2.34169c-0.85787,-1.56775 -1.31124,-2.97708 -2.59551,-4.36888l-0.14663,-0.15539c0.38596,-0.54809 0.69607,-1.13899 1.02472,-1.72416zM254.25337,158.9759c-0.03708,-1.74826 -1.41404,-1.9623 -2.87191,-1.91596c0.44326,0.72775 0.73146,1.53169 1.41742,1.99719c0.66236,0.11848 0.77528,0.05865 1.45449,-0.08124z" fill="#c6a65b"/><path d="M114.81404,225.71461l0.31854,0.18539c0.58433,1.9264 -2.62534,4.10562 -0.29157,5.49775l0.25331,0.14831l-0.0541,0.28315c-0.51152,0.44831 -1.05354,1.22697 -1.44792,1.51854l-0.13096,-0.18876c-0.36893,-0.45169 -0.15303,-0.37079 -0.59747,-0.43146c-0.3814,0.30337 -0.42624,0.42303 -0.86579,0.51067c-0.40247,-1.0264 2.35045,-6.08764 2.81596,-7.5236z" fill="#cb9d40"/><path d="M45.90758,146.89449c0.71191,0.17882 2.17365,1.81247 2.43152,2.51461c-0.36624,0.83663 -0.495,1.12011 -0.55787,2.06865c-0.2818,0.37719 -0.09674,0.25264 -0.60152,0.34096c-0.78489,-0.7259 -0.55129,-3.18152 -1.27213,-4.92421z" fill="#bd8e2e"/><path d="M109.16545,232.20674c0.59022,0.52416 0.34652,0.45337 1.03348,0.54944c-0.23478,0.52584 -1.01933,2.73034 -0.98107,3.17865l-0.31719,0.04551c-0.26596,0.44494 -0.27287,0.4264 -0.38444,0.96404c-0.2336,-0.22753 -0.61449,-0.51573 -0.54809,-0.8309c0.24455,-1.16124 0.51051,-2.98989 1.1973,-3.90674z" fill="#cb9d40"/><path d="M155.40657,43.3682l0.32848,0.04247l-0.01433,0.31433c-1.18904,1.14961 -3.37433,0.48556 -5.67978,1.51483l-0.32292,-0.1586l-0.0477,-0.31854c1.09921,-1.38017 4.00028,-0.53781 5.73624,-1.39449z" fill="#cb9d40"/><path d="M65.36225,179.13371c1.34427,0.6809 0.50899,2.29045 0.20326,3.47528l0.3782,0.3236l-0.09522,0.26124l-0.22096,0.06404c-0.47376,-0.20899 -0.57506,-0.44831 -0.93826,-0.8764c0.02764,-1.12416 -0.22972,-2.58371 0.67298,-3.24775z" fill="#cb9d40"/><path d="M127.53522,216.29663c0.63792,0.3118 1.4786,1.09045 1.74034,1.79831c-0.09219,0.54101 -0.14326,0.41966 -0.69775,0.88315c-0.66421,0.27809 -1.09584,0.18876 -1.47573,-0.3927c-0.11781,-0.99101 0.12354,-1.28258 0.43315,-2.28876z" fill="#cb9d40"/><path d="M109.16545,232.20674c-0.54371,-0.53933 -0.4714,-0.31517 -0.60287,-0.96742c0.22618,-0.83596 0.73163,-1.08371 1.47253,-1.5573c0.52112,0.54607 0.50899,0.40618 0.62646,1.25562c-0.1286,0.52584 -0.29663,1.3264 -0.46264,1.81854c-0.68697,-0.09607 -0.44326,-0.02528 -1.03348,-0.54944z" fill="#c6a65b"/><path d="M255.75506,146.20382l0.19045,0.12506c0.37753,0.62713 0.31011,3.9 0.14663,4.63803l-0.30506,0.15775c-0.28146,-0.71663 -0.60506,-1.40494 -0.9236,-2.10539c0.50393,-1.05539 0.61854,-1.66854 0.89157,-2.81545z" fill="#bd8e2e"/><path d="M109.83371,235.73764c0.61669,-0.97753 1.23388,-1.58596 2.49506,-1.0382c0.37483,0.46854 0.27792,0.20562 0.27826,0.82416c-0.22938,0.40281 -0.23831,0.47697 -0.55466,0.82079c-0.73348,-0.40449 -1.39146,-0.45843 -2.21865,-0.60674z" fill-opacity="0.04706" fill="#000000"/><path d="M110.64927,225.84607c0.30674,0.24438 0.30708,0.39775 0.41124,0.76685c0.3091,-0.55112 0.36017,-0.60843 0.86562,-0.98764c-0.37517,1.09045 -1.08725,4.11236 -1.26455,5.31236c-0.11747,-0.84944 -0.10534,-0.70955 -0.62646,-1.25562c0.21876,-0.00337 0.13702,-0.01348 0.37534,-0.17528c0.23006,-0.77022 -0.00202,-2.3191 0.23882,-3.66067z" fill="#cb9d40"/><path d="M238.68708,88.81938c1.27584,0.83326 1.46798,1.81028 2.78933,2.49843l0.0118,0.13938c-0.08764,0.5486 0.19551,0.84051 0.44157,1.49494l-0.29326,-0.06034c-1.32809,-1.10596 -2.3882,-2.42157 -2.94944,-4.07242z" fill-opacity="0.01569" fill="#000000"/><path d="M203.82472,174.90674c-0.50056,-0.31517 -0.52921,-0.20899 -0.6573,-0.64213c0.34382,-0.83596 2.36461,-1.99719 3.16348,-1.27921c-0.61348,0.47528 -1.94663,1.00955 -2.0882,1.62303z" fill-opacity="0.01176" fill="#000000"/><path d="M238.92978,88.29354c0.95225,0.31534 2.34101,2.07219 2.54663,3.02427c-1.32135,-0.68815 -1.51348,-1.66517 -2.78933,-2.49843z" fill="#bd8e2e"/><path d="M107.92382,224.16404c0.73348,-0.82079 1.11691,-1.23539 1.69972,-2.15899l0.19045,0.00337c0.10938,0.63876 0.1564,0.71124 -0.04635,1.30112c-0.87185,0.84775 -1.06045,0.45337 -1.42669,1.46629c-0.17646,-0.15506 -0.29039,-0.39944 -0.41713,-0.6118z" fill-opacity="0.03137" fill="#000000"/><path d="M98.25657,174.58483c1.02657,0.18539 2.54511,1.11236 3.01163,2.06461c-1.30938,0.02697 -2.35298,-1.00449 -3.01163,-2.06461z" fill="#bd8e2e"/><path d="M116.55236,233.13034c0.37972,-0.14831 0.86427,-0.47022 1.22933,-0.6927c-0.4018,0.81067 -0.91079,1.96517 -1.49882,2.60393l-0.1773,-0.09775c-0.05242,-1.01966 0.25854,-0.99438 0.4468,-1.81348z" fill="#bd8e2e"/><path d="M251.81292,163.71691c1.28258,0.28466 1.61798,1.00871 1.76292,2.23163c-1.05337,-0.20022 -1.41573,-1.35826 -1.76292,-2.23163z" fill="#cb9d40"/><path d="M206.3309,172.98539l0.27472,0.47865c-0.75506,0.62528 -1.32303,1.27079 -2.36292,1.14438c0.14157,-0.61348 1.47472,-1.14775 2.0882,-1.62303z" fill="#bd8e2e"/><path d="M242.98652,157.69719c0.31517,0.07685 0.16517,0.00725 0.40449,0.30185c-0.12135,0.4591 -0.61517,0.81455 -0.98933,1.15483c-0.17865,-0.05039 -0.21404,-0.10702 -0.37753,-0.22365c0.13483,-0.55416 0.5073,-0.77343 0.96236,-1.23303z" fill="#a67124"/><path d="M136.65101,242.68989c0.70854,0.02528 0.83157,0.03708 1.50421,0.25449l0.0536,0.24438l-0.35292,0.18876c-0.65191,0.00674 -0.93455,0.05562 -1.5359,-0.15674l-0.04399,-0.22079z" fill="#452815"/></g></svg></svg>